<svg width="30" height="21" viewBox="0 0 30 21" fill="none" xmlns="http://www.w3.org/2000/svg">
<g clip-path="url(#clip0_0_648)">
<path d="M1.63989 0.956249H28.2799V19.3562H1.63989V0.956249Z" fill="white"/>
<path d="M6.78344 13.836C6.78344 13.511 6.6144 13.5323 6.45232 13.5288V13.4349C6.5928 13.4419 6.7368 13.4419 6.87752 13.4419C7.0288 13.4419 7.23432 13.4349 7.50096 13.4349C8.43392 13.4349 8.942 14.0599 8.942 14.6999C8.942 15.0579 8.7332 15.9575 7.4576 15.9575C7.27392 15.9575 7.1044 15.9505 6.9352 15.9505C6.77304 15.9505 6.6144 15.9541 6.45232 15.9576V15.8638C6.66832 15.8419 6.77312 15.8347 6.78336 15.5889V13.8361L6.78344 13.836ZM7.13664 15.5312C7.13664 15.8095 7.33504 15.842 7.51144 15.842C8.29 15.842 8.5456 15.2528 8.5456 14.7143C8.5456 14.0387 8.11312 13.5507 7.41784 13.5507C7.26984 13.5507 7.20184 13.5614 7.13664 13.5652V15.5312ZM9.06848 15.8638H9.13672C9.23752 15.8638 9.30968 15.8638 9.30968 15.7443V14.765C9.30968 14.6061 9.25568 14.584 9.12232 14.5122V14.4543C9.2916 14.4032 9.4936 14.3351 9.50776 14.3242C9.5332 14.3097 9.55464 14.3059 9.57272 14.3059C9.59056 14.3059 9.59808 14.3277 9.59808 14.3567V15.7443C9.59808 15.8638 9.67728 15.8638 9.77816 15.8638H9.83936V15.9578C9.71672 15.9578 9.59056 15.9506 9.46112 15.9506C9.33144 15.9506 9.2016 15.9541 9.06848 15.9578V15.8638ZM9.45392 13.7494C9.36008 13.7494 9.27744 13.6627 9.27744 13.5687C9.27744 13.4783 9.36392 13.3949 9.45392 13.3949C9.54728 13.3949 9.63056 13.4711 9.63056 13.5687C9.63056 13.6663 9.55096 13.7494 9.45392 13.7494ZM10.1817 14.7865C10.1817 14.6529 10.1418 14.6169 9.97288 14.5482V14.4796C10.1277 14.4291 10.2753 14.382 10.4483 14.3059C10.459 14.3059 10.4696 14.3133 10.4696 14.342V14.5771C10.6754 14.4291 10.852 14.3059 11.0937 14.3059C11.3996 14.3059 11.5077 14.53 11.5077 14.8119V15.7443C11.5077 15.8638 11.5869 15.8638 11.6879 15.8638H11.7528V15.9578C11.6264 15.9578 11.5003 15.9506 11.3709 15.9506C11.241 15.9506 11.1112 15.9541 10.9817 15.9578V15.8638H11.0463C11.1475 15.8638 11.2191 15.8638 11.2191 15.7443V14.8084C11.2191 14.6022 11.0937 14.5011 10.8879 14.5011C10.7728 14.5011 10.589 14.5951 10.4696 14.6747V15.7442C10.4696 15.8638 10.5493 15.8638 10.6503 15.8638H10.715V15.9578C10.589 15.9578 10.4627 15.9506 10.333 15.9506C10.2034 15.9506 10.0734 15.9541 9.94384 15.9578V15.8638H10.0089C10.1097 15.8638 10.1817 15.8638 10.1817 15.7442V14.7865ZM12.0268 14.9602C12.0193 14.9928 12.0193 15.0469 12.0268 15.1699C12.048 15.5131 12.2684 15.795 12.5562 15.795C12.7546 15.795 12.9098 15.6866 13.043 15.5529L13.0932 15.6037C12.9274 15.824 12.722 16.0119 12.4268 16.0119C11.8537 16.0119 11.7384 15.4551 11.7384 15.2241C11.7384 14.5156 12.2139 14.3059 12.466 14.3059C12.758 14.3059 13.0718 14.4901 13.0751 14.8732C13.0751 14.8951 13.0751 14.9166 13.0718 14.9385L13.0391 14.9602H12.0268ZM12.6647 14.8445C12.7546 14.8445 12.7652 14.7975 12.7652 14.7542C12.7652 14.5699 12.6535 14.4216 12.4516 14.4216C12.2321 14.4216 12.0807 14.584 12.0375 14.8445H12.6647ZM13.1581 15.8638H13.2554C13.356 15.8638 13.4281 15.8638 13.4281 15.7443V14.7288C13.4281 14.6168 13.295 14.5951 13.2408 14.5662V14.5122C13.5038 14.3999 13.6481 14.3059 13.6808 14.3059C13.7022 14.3059 13.7128 14.3168 13.7128 14.3531V14.6783H13.7204C13.8103 14.5375 13.9619 14.3059 14.1814 14.3059C14.2716 14.3059 14.3868 14.3672 14.3868 14.4975C14.3868 14.5951 14.3185 14.6821 14.2177 14.6821C14.1055 14.6821 14.1055 14.5951 13.9796 14.5951C13.9182 14.5951 13.7166 14.6783 13.7166 14.8951V15.7443C13.7166 15.8638 13.7886 15.8638 13.8896 15.8638H14.0912V15.9578C13.893 15.9541 13.7422 15.9506 13.587 15.9506C13.4393 15.9506 13.2878 15.9541 13.1582 15.9578L13.1581 15.8638ZM14.5454 15.4551C14.5924 15.6938 14.7363 15.8963 14.9995 15.8963C15.2117 15.8963 15.291 15.7662 15.291 15.6397C15.291 15.2131 14.5058 15.3505 14.5058 14.7687C14.5058 14.5662 14.6681 14.3059 15.0642 14.3059C15.1794 14.3059 15.3342 14.3387 15.4747 14.411L15.5002 14.7793H15.4172C15.3812 14.5519 15.2553 14.4217 15.0244 14.4217C14.8803 14.4217 14.7435 14.5049 14.7435 14.6601C14.7435 15.0833 15.5794 14.9529 15.5794 15.5203C15.5794 15.7587 15.3884 16.0119 14.9595 16.0119C14.8154 16.0119 14.6462 15.9613 14.5202 15.8892L14.4804 15.4735L14.5454 15.4551ZM18.833 14.0891H18.7432C18.6746 13.6664 18.3756 13.4963 17.9722 13.4963C17.5575 13.4963 16.9558 13.7745 16.9558 14.6419C16.9558 15.3724 17.475 15.8963 18.0297 15.8963C18.3863 15.8963 18.682 15.6506 18.7541 15.271L18.8367 15.2925L18.7541 15.8202C18.6027 15.9143 18.1955 16.0119 17.9574 16.0119C17.1146 16.0119 16.5814 15.4661 16.5814 14.6529C16.5814 13.9119 17.2406 13.3805 17.9469 13.3805C18.2386 13.3805 18.5197 13.4748 18.7971 13.5725L18.833 14.0891ZM18.963 15.8638H19.0313C19.1323 15.8638 19.2046 15.8638 19.2046 15.7443V13.7315C19.2046 13.4963 19.1506 13.4891 19.0134 13.4495V13.3916C19.1576 13.3447 19.309 13.2796 19.3846 13.2361C19.4238 13.2145 19.453 13.1963 19.4637 13.1963C19.4857 13.1963 19.4929 13.2181 19.4929 13.2471V15.7443C19.4929 15.8638 19.572 15.8638 19.673 15.8638H19.7338V15.9578C19.6118 15.9578 19.4857 15.9506 19.3558 15.9506C19.2262 15.9506 19.0966 15.9541 18.963 15.9578V15.8638ZM21.2766 15.7587C21.2766 15.824 21.3161 15.8275 21.3772 15.8275C21.4206 15.8275 21.4745 15.824 21.5214 15.824V15.9C21.3664 15.9144 21.0709 15.9904 21.0024 16.0119L20.9843 16.001V15.7085C20.7683 15.8855 20.6024 16.0119 20.3464 16.0119C20.1518 16.0119 19.9501 15.8855 19.9501 15.5821V14.6565C19.9501 14.5627 19.9357 14.4722 19.7343 14.4543V14.3855C19.8642 14.3819 20.1518 14.3603 20.1989 14.3603C20.2389 14.3603 20.2389 14.3855 20.2389 14.4651V15.3972C20.2389 15.5059 20.2389 15.8166 20.5521 15.8166C20.6745 15.8166 20.8366 15.7227 20.9878 15.5966V14.6238C20.9878 14.5518 20.815 14.5122 20.6856 14.4759V14.4108C21.0094 14.3891 21.2116 14.3603 21.2474 14.3603C21.2766 14.3603 21.2766 14.3855 21.2766 14.4255V15.7587ZM21.9936 14.5662C22.1376 14.4433 22.332 14.3059 22.5304 14.3059C22.9486 14.3059 23.2005 14.6713 23.2005 15.0649C23.2005 15.5383 22.8547 16.0119 22.3391 16.0119C22.0726 16.0119 21.9322 15.9251 21.8383 15.8855L21.7305 15.9683L21.655 15.9288C21.687 15.7156 21.7054 15.5059 21.7054 15.2855V13.7315C21.7054 13.4963 21.651 13.4891 21.5142 13.4495V13.3916C21.6587 13.3447 21.8096 13.2796 21.8854 13.2361C21.925 13.2145 21.9537 13.1963 21.9649 13.1963C21.9863 13.1963 21.9935 13.2181 21.9935 13.2471L21.9936 14.5662ZM21.9936 15.5491C21.9936 15.6866 22.1231 15.9181 22.3646 15.9181C22.7502 15.9181 22.9122 15.5383 22.9122 15.2166C22.9122 14.8263 22.617 14.5011 22.3359 14.5011C22.2022 14.5011 22.0908 14.588 21.9935 14.6713L21.9936 15.5491ZM6.44824 18.0591H6.47584C6.54624 18.0591 6.62072 18.0495 6.62072 17.9471V16.9168C6.62072 16.8143 6.54624 16.8046 6.47584 16.8046H6.44824V16.7455C6.5248 16.7455 6.6424 16.7534 6.7388 16.7534C6.83664 16.7534 6.95416 16.7455 7.04632 16.7455V16.8046H7.01872C6.9484 16.8046 6.87376 16.8143 6.87376 16.9168V17.9471C6.87376 18.0495 6.9484 18.0591 7.01872 18.0591H7.04632V18.1183C6.95224 18.1183 6.83432 18.1106 6.73656 18.1106C6.64048 18.1106 6.5248 18.1183 6.44824 18.1183V18.0591Z" fill="#211E1F"/>
<path d="M7.04642 18.1267C6.9517 18.1267 6.83426 18.1187 6.73658 18.1187C6.64074 18.1187 6.52546 18.1267 6.44834 18.1267H6.43994V18.0506H6.47586C6.5469 18.049 6.61162 18.0432 6.61234 17.947V16.9168C6.61162 16.8207 6.5469 16.8142 6.47586 16.8129H6.43994V16.7368H6.44834C6.52546 16.7368 6.6429 16.7446 6.73874 16.7446C6.83634 16.7446 6.9537 16.7368 7.04642 16.7368H7.05522V16.8129H7.01898C6.94786 16.8142 6.88274 16.8207 6.88234 16.9168V17.947C6.88274 18.0432 6.94786 18.0489 7.01898 18.0506H7.05514V18.1266H7.04642V18.1267ZM7.03802 18.1099V18.0679H7.01898C6.94898 18.0679 6.86562 18.0557 6.86522 17.947V16.9168C6.86562 16.8081 6.94898 16.7958 7.01898 16.7958H7.03802V16.7541C6.94746 16.7541 6.83394 16.7618 6.73882 16.7618C6.64562 16.7618 6.5329 16.7547 6.45706 16.7541V16.7958H6.47578C6.5457 16.7958 6.62938 16.8081 6.62938 16.9168V17.947C6.62938 18.0558 6.5457 18.0679 6.47578 18.0679H6.45706V18.1099C6.5329 18.1091 6.6437 18.1019 6.73658 18.1019C6.83202 18.1019 6.94554 18.1093 7.03802 18.1099ZM8.39338 17.7306L8.39738 17.7268V16.9894C8.39738 16.828 8.28538 16.8047 8.22674 16.8047H8.18346V16.7455C8.27578 16.7455 8.36586 16.7533 8.45794 16.7533C8.53826 16.7533 8.61906 16.7455 8.6993 16.7455V16.8046H8.66994C8.58738 16.8046 8.49522 16.8203 8.49522 17.0542V17.9492C8.49522 18.018 8.49722 18.0867 8.5069 18.1476H8.43226L7.42274 17.0188V17.8291C7.42274 18.0002 7.45578 18.059 7.60698 18.059H7.64018V18.1183C7.55602 18.1183 7.47186 18.1106 7.38738 18.1106C7.29938 18.1106 7.20914 18.1183 7.12082 18.1183V18.059H7.14826C7.28354 18.059 7.32458 17.9668 7.32458 17.8096V16.9813C7.32458 16.8713 7.23418 16.8046 7.14634 16.8046H7.12074V16.7455C7.1953 16.7455 7.2717 16.7533 7.3461 16.7533C7.40498 16.7533 7.46194 16.7455 7.52066 16.7455L8.39338 17.7306Z" fill="#211E1F"/>
<path d="M8.50686 18.1563L8.42606 18.1532L7.43102 17.0411V17.8291C7.43342 18.0002 7.45934 18.0487 7.60702 18.0506H7.64902V18.1267H7.64022C7.55542 18.1267 7.47102 18.1187 7.38742 18.1187C7.29958 18.1187 7.20958 18.1267 7.12062 18.1267H7.11206V18.0506H7.14822C7.27782 18.0499 7.31478 17.9665 7.31622 17.8097V16.9815C7.31598 16.8767 7.23038 16.8132 7.1463 16.813H7.11206V16.7371H7.12062C7.19558 16.7371 7.27238 16.7447 7.3459 16.7447C7.4043 16.7447 7.4611 16.7371 7.52718 16.74L8.38878 17.7128V16.9896C8.38774 16.8331 8.28374 16.8143 8.22662 16.813H8.1747V16.7371H8.18342C8.27606 16.7371 8.3663 16.7447 8.4579 16.7447C8.53774 16.7447 8.61806 16.7371 8.6991 16.7371H8.70766V16.8129H8.6699C8.58902 16.8153 8.5059 16.8223 8.50366 17.0543V17.9491C8.50366 18.0179 8.50566 18.0866 8.51518 18.1462L8.5171 18.1563H8.50686ZM8.43246 18.1389H8.49726C8.48846 18.0799 8.48686 18.0144 8.48686 17.9491V17.0543C8.48686 16.8183 8.5855 16.7959 8.6699 16.7959H8.69062V16.7542C8.61334 16.7547 8.5359 16.7618 8.45798 16.7618C8.36822 16.7618 8.28094 16.7547 8.19214 16.7542L8.19206 16.7959H8.2267C8.28694 16.7959 8.4059 16.8229 8.4059 16.9896L8.40318 17.7327L8.39918 17.7368L8.39262 17.743L7.52062 16.7542C7.46246 16.7542 7.40566 16.7618 7.34598 16.7618C7.27398 16.7618 7.20046 16.7547 7.12942 16.7542L7.12894 16.7959H7.14638C7.23838 16.7959 7.33294 16.8663 7.33294 16.9815V17.8096C7.33294 17.9668 7.28926 18.0675 7.1483 18.068L7.12942 18.0675V18.1099C7.21438 18.1091 7.30166 18.1019 7.38742 18.1019C7.46926 18.1019 7.5507 18.1091 7.63174 18.1099V18.068H7.60694C7.4527 18.0675 7.41438 18.0001 7.41414 17.8291V16.9967L8.43246 18.1389ZM8.38886 17.7267V17.7261L8.38726 17.7247L8.38886 17.7267ZM8.99286 16.8438C8.84558 16.8438 8.84006 16.8792 8.81062 17.0227H8.75174C8.7595 16.9677 8.76934 16.9127 8.77526 16.8555C8.78318 16.8004 8.78694 16.7455 8.78694 16.6886H8.83414C8.8499 16.7476 8.89894 16.7455 8.95206 16.7455H9.96342C10.0165 16.7455 10.0654 16.7437 10.0695 16.6845L10.1162 16.6924C10.1086 16.7455 10.1007 16.7987 10.0948 16.8518C10.0913 16.9048 10.0913 16.958 10.0913 17.011L10.0322 17.0329C10.0281 16.9602 10.0184 16.8438 9.88718 16.8438H9.56558V17.8901C9.56558 18.0417 9.6343 18.0591 9.72806 18.0591H9.7655V18.1183C9.68902 18.1183 9.55158 18.1106 9.44598 18.1106C9.32838 18.1106 9.19094 18.1183 9.11438 18.1183V18.0591H9.15174C9.25982 18.0591 9.31446 18.0494 9.31446 17.8942V16.8438H8.99286Z" fill="#211E1F"/>
<path d="M9.76587 18.1266C9.68867 18.1266 9.55147 18.1187 9.44611 18.1187C9.32867 18.1187 9.19147 18.1266 9.11451 18.1266H9.10635V18.0506H9.15195C9.25995 18.048 9.30347 18.0466 9.30595 17.8942V16.8522H8.99291V16.8349H9.32283V17.8941C9.32283 18.0518 9.25955 18.0678 9.15187 18.0679H9.12307V18.1094C9.20035 18.109 9.33227 18.1019 9.44603 18.1019C9.54827 18.1019 9.67939 18.109 9.75683 18.1094V18.0679H9.72819C9.63339 18.0678 9.55715 18.0445 9.55715 17.89V16.8349H9.88723C10.0188 16.8354 10.036 16.9477 10.0403 17.0206L10.0826 17.005C10.0826 16.9537 10.0829 16.9022 10.0864 16.8505C10.0921 16.7998 10.0993 16.7497 10.1067 16.6995L10.0767 16.6945C10.0676 16.7518 10.0126 16.7546 9.96315 16.7541H8.94203C8.89595 16.7541 8.84555 16.7518 8.82795 16.697H8.79563C8.79539 16.7503 8.79163 16.8036 8.78403 16.8564C8.77835 16.9105 8.76939 16.9624 8.76203 17.0143H8.80403C8.82987 16.8773 8.84667 16.8329 8.99291 16.8349V16.8522C8.84803 16.8548 8.85107 16.8794 8.81915 17.0247L8.81763 17.0314H8.74219L8.74331 17.0212C8.75115 16.9661 8.76107 16.9113 8.76691 16.854C8.77507 16.7994 8.77891 16.7449 8.77891 16.6884V16.6798H8.84107L8.84243 16.686C8.85587 16.7356 8.89219 16.7359 8.94203 16.7367H9.96339C10.018 16.7359 10.0578 16.7351 10.0611 16.6837L10.0619 16.6744L10.0707 16.6763L10.1261 16.6851L10.1249 16.6936C10.1167 16.7463 10.1096 16.7992 10.1035 16.8522C10.0995 16.9046 10.0995 16.9578 10.0995 17.0108V17.017L10.0942 17.0191L10.0247 17.0445L10.0242 17.033C10.019 16.9591 10.0112 16.8522 9.88739 16.8522H9.57443V17.8899C9.57619 18.0383 9.63491 18.0486 9.72827 18.0504H9.77427V18.1265H9.76595L9.76587 18.1266ZM10.1791 18.059H10.2067C10.2771 18.059 10.3517 18.0494 10.3517 17.947V16.9168C10.3517 16.8142 10.2771 16.8046 10.2067 16.8046H10.1791V16.7455C10.2984 16.7455 10.5027 16.7533 10.6671 16.7533C10.8321 16.7533 11.0356 16.7455 11.1688 16.7455C11.1658 16.8458 11.1672 16.9462 11.1732 17.0463L11.114 17.0622C11.1047 16.9344 11.0812 16.8322 10.8751 16.8322H10.6028V17.3473H10.8359C10.9535 17.3473 10.9791 17.2806 10.9907 17.1741H11.0495C11.0416 17.3255 11.0416 17.4771 11.0495 17.6285L10.9907 17.6402C10.9792 17.5223 10.9732 17.4457 10.8378 17.4457H10.6029V17.9037C10.6029 18.0317 10.7161 18.0317 10.8418 18.0317C11.0771 18.0317 11.1808 18.0158 11.2397 17.7919L11.2947 17.8054C11.2685 17.9088 11.2464 18.0132 11.2282 18.1183C11.1026 18.1183 10.877 18.1106 10.7007 18.1106C10.5239 18.1106 10.2909 18.1183 10.1791 18.1183L10.1791 18.059Z" fill="#211E1F"/>
<path d="M11.2279 18.1266C11.1019 18.1266 10.8766 18.1186 10.7005 18.1186C10.5239 18.1186 10.2909 18.1266 10.1789 18.1266H10.1707V18.0506H10.2064C10.2775 18.0495 10.3419 18.0432 10.3429 17.9471V16.9168C10.3419 16.8208 10.2775 16.8144 10.2064 16.8129H10.1707V16.7371H10.1789C10.2986 16.7371 10.5025 16.7446 10.6669 16.7446C10.8318 16.7446 11.0352 16.7371 11.1687 16.7371H11.1775L11.1771 16.7459C11.1757 16.7798 11.1751 16.8136 11.1752 16.8474C11.1752 16.9154 11.1771 16.9898 11.1811 17.0458L11.1814 17.0529L11.1748 17.0548L11.1059 17.0728L11.1055 17.0627C11.0939 16.9351 11.077 16.8426 10.8751 16.8406H10.6109L10.6107 17.3384H10.8358C10.9486 17.3374 10.9689 17.2794 10.9822 17.1734L10.983 17.1657H11.0581L11.0579 17.1745C11.054 17.2511 11.0519 17.3277 11.0517 17.4044C11.0517 17.4788 11.0541 17.5534 11.0579 17.6283L11.0581 17.6353L11.051 17.6369L10.983 17.6505L10.9822 17.6413C10.9687 17.5213 10.9678 17.4555 10.8375 17.4541L10.6109 17.4539V17.9038C10.6111 18.0232 10.7138 18.0225 10.8416 18.0232C11.0776 18.0218 11.1723 18.0104 11.2315 17.7894L11.2334 17.7815L11.2416 17.7831L11.3044 17.7993L11.3025 17.8074C11.2772 17.9116 11.2537 18.0155 11.2361 18.1197L11.2345 18.1266H11.2279ZM11.2207 18.1095C11.2384 18.0096 11.2596 17.9103 11.2842 17.8118L11.2454 17.802C11.1867 18.0221 11.073 18.0417 10.8416 18.0402C10.7182 18.0402 10.5944 18.0402 10.5939 17.9037V17.4371H10.8375C10.9744 17.4356 10.9884 17.5186 10.9981 17.6305L11.0405 17.6217C11.033 17.4755 11.033 17.329 11.0405 17.1828L10.9981 17.1827C10.9872 17.2851 10.9553 17.3571 10.8357 17.3558H10.5939V16.8234H10.8751C11.0791 16.822 11.1128 16.9276 11.1215 17.0513L11.1639 17.0398C11.1601 16.9758 11.1582 16.9116 11.1581 16.8474C11.1581 16.8138 11.1589 16.782 11.16 16.7542C11.0268 16.7547 10.8283 16.7618 10.6669 16.7618C10.5058 16.7618 10.3075 16.7547 10.1874 16.7542V16.7958H10.2064C10.2763 16.7958 10.3598 16.8082 10.36 16.9168V17.9471C10.3598 18.0554 10.2763 18.0674 10.2064 18.068H10.1874V18.1094C10.3018 18.1094 10.5282 18.102 10.7005 18.102C10.8734 18.102 11.0942 18.1094 11.2207 18.1094V18.1095ZM11.5591 16.9539C11.5591 16.8105 11.4808 16.8046 11.4198 16.8046H11.3846V16.7454C11.4474 16.7454 11.5687 16.7534 11.6884 16.7534C11.806 16.7534 11.9003 16.7454 12.004 16.7454C12.2508 16.7454 12.4707 16.8124 12.4707 17.0919C12.4707 17.2685 12.3531 17.3767 12.1983 17.4379L12.5335 17.9411C12.5883 18.0243 12.6274 18.0475 12.7236 18.059V18.1183C12.6588 18.1183 12.5961 18.1106 12.5315 18.1106C12.4707 18.1106 12.4078 18.1183 12.3472 18.1183C12.1963 17.9197 12.0667 17.7072 11.9392 17.4809H11.8103V17.9019C11.8103 18.0535 11.8805 18.059 11.9707 18.059H12.006V18.1183C11.894 18.1183 11.7807 18.1106 11.6688 18.1106C11.5746 18.1106 11.4824 18.1183 11.3846 18.1183V18.059H11.4198C11.4926 18.059 11.5591 18.026 11.5591 17.953V16.9538L11.5591 16.9539ZM11.8103 17.4102H11.9059C12.1021 17.4102 12.2078 17.3354 12.2078 17.1034C12.2078 16.9286 12.0961 16.8163 11.9214 16.8163C11.8626 16.8163 11.8375 16.8225 11.8102 16.8242V17.4102H11.8103Z" fill="#211E1F"/>
<path d="M12.7237 18.1266C12.658 18.1266 12.5956 18.1187 12.5311 18.1187C12.4713 18.1187 12.4087 18.1267 12.3404 18.1234C12.19 17.9255 12.0612 17.7143 11.9344 17.4896H11.8185V17.9017C11.8206 18.0497 11.8799 18.0484 11.9705 18.0506H12.0145V18.1267H12.0057C11.8937 18.1267 11.78 18.1187 11.6686 18.1187C11.5749 18.1187 11.483 18.1267 11.3846 18.1267H11.376V18.0506H11.4197C11.4905 18.0502 11.5501 18.0194 11.5503 17.9531V16.9539C11.5488 16.8143 11.4807 16.8151 11.4197 16.8131H11.376V16.7369H11.3845C11.4481 16.7369 11.569 16.7446 11.6885 16.7446C11.8055 16.7446 11.8997 16.7369 12.0041 16.7369C12.2512 16.7374 12.4788 16.8058 12.4794 17.0914C12.4794 17.269 12.3624 17.3799 12.211 17.4418L12.5405 17.9365C12.5953 18.0181 12.6294 18.0383 12.7249 18.0506L12.7321 18.0517V18.1267L12.7237 18.1266ZM11.8101 17.4725H11.9441L11.9464 17.4768C12.0741 17.7027 12.2029 17.9149 12.3473 18.1099C12.4071 18.1099 12.4701 18.1018 12.5311 18.1018C12.5937 18.1018 12.6541 18.1086 12.7152 18.1096V18.0666C12.6232 18.055 12.5801 18.0275 12.5265 17.9458L12.1853 17.4338L12.1949 17.4298C12.3484 17.3694 12.4619 17.2642 12.4621 17.0914C12.4619 16.8186 12.2506 16.7553 12.0041 16.7542C11.9007 16.7542 11.8065 16.7619 11.6885 16.7619C11.5733 16.7619 11.457 16.7547 11.3929 16.7542V16.7958H11.4197C11.4807 16.796 11.5674 16.8061 11.5674 16.9539V17.9531C11.5674 18.032 11.4936 18.068 11.4197 18.0682H11.3929V18.1096C11.4873 18.1094 11.5765 18.1018 11.6686 18.1018C11.7782 18.1018 11.8889 18.1094 11.9973 18.1096V18.0682H11.9705C11.8811 18.068 11.8014 18.0569 11.8014 17.9017V17.4725H11.81H11.8101ZM11.8101 17.4185H11.8014V16.8163L11.8089 16.8157C11.8357 16.8136 11.8622 16.808 11.9215 16.808C12.1001 16.808 12.2162 16.9245 12.2165 17.1038C12.216 17.3386 12.1037 17.4183 11.906 17.4184H11.81L11.8101 17.4185ZM11.906 17.4015C12.1001 17.3999 12.1977 17.3323 12.1998 17.1038C12.1987 16.9319 12.0922 16.8254 11.9214 16.8246C11.8685 16.8246 11.8436 16.8295 11.8185 16.8318V17.4015H11.906ZM14.0548 17.7307L14.0584 17.7269V16.9895C14.0584 16.8281 13.9468 16.8046 13.888 16.8046H13.845V16.7455C13.937 16.7455 14.0271 16.7534 14.1194 16.7534C14.1999 16.7534 14.28 16.7455 14.3609 16.7455V16.8046H14.3313C14.2489 16.8046 14.1568 16.8202 14.1568 17.0542V17.9493C14.1568 18.018 14.1587 18.0867 14.1684 18.1477H14.094L13.0844 17.0189V17.8291C13.0844 18.0003 13.1177 18.059 13.2685 18.059H13.3019V18.1183C13.2177 18.1183 13.1333 18.1106 13.0491 18.1106C12.9606 18.1106 12.8705 18.1183 12.7824 18.1183V18.059H12.8096C12.945 18.059 12.9862 17.9669 12.9862 17.8097V16.9814C12.9862 16.8713 12.8961 16.8046 12.808 16.8046H12.7824V16.7456C12.8566 16.7456 12.9334 16.7534 13.0078 16.7534C13.0662 16.7534 13.1233 16.7456 13.1822 16.7456L14.0548 17.7307Z" fill="#211E1F"/>
<path d="M14.1684 18.1562L14.0876 18.1535L13.0926 17.0411V17.8291C13.0949 18.0002 13.1207 18.0487 13.2686 18.0507H13.3102V18.1267H13.3015C13.2167 18.1267 13.1327 18.1187 13.0486 18.1187C12.961 18.1187 12.8705 18.1267 12.7822 18.1267H12.7734V18.0507H12.8094C12.9389 18.0501 12.976 17.9665 12.9773 17.8091V16.9814C12.9771 16.8766 12.8916 16.8131 12.8078 16.813H12.7734V16.737H12.7822C12.857 16.737 12.9338 16.7447 13.0077 16.7447C13.0653 16.7447 13.1222 16.7369 13.188 16.7396L14.0498 17.7129V16.9894C14.0493 16.8331 13.9449 16.8138 13.8879 16.813H13.8361V16.737H13.8447C13.9374 16.737 14.0277 16.7447 14.1193 16.7447C14.1993 16.7447 14.2796 16.7369 14.3604 16.7369H14.3689V16.813H14.3313C14.2504 16.8151 14.167 16.8224 14.165 17.0543V17.9491C14.165 18.0179 14.1667 18.0861 14.1766 18.1466L14.1778 18.1562H14.1684ZM14.0939 18.139H14.1583C14.1498 18.0799 14.1478 18.0145 14.1478 17.9491V17.0543C14.148 16.8183 14.2472 16.7965 14.3313 16.7958H14.3518V16.7542C14.2748 16.7547 14.1972 16.7619 14.1193 16.7619C14.0293 16.7619 13.9418 16.7547 13.853 16.7542V16.7958H13.8879C13.9482 16.7965 14.0671 16.823 14.0671 16.9894L14.0644 17.7328L14.0606 17.7368L14.0546 17.7432L13.182 16.7543C13.1238 16.7543 13.067 16.7619 13.0077 16.7619C12.9351 16.7619 12.8618 16.7547 12.7905 16.7543V16.7959H12.8078C12.8998 16.7965 12.9944 16.8662 12.9944 16.9814V17.8091C12.9944 17.9671 12.9501 18.0675 12.8095 18.0681L12.7905 18.0679V18.1095C12.8751 18.1091 12.9626 18.102 13.0486 18.102C13.1309 18.102 13.2123 18.1091 13.2934 18.1095V18.0681H13.2686C13.1142 18.0679 13.0756 18.0002 13.0753 17.8291V16.9971L14.0939 18.139ZM14.0498 17.7269V17.7263L14.0482 17.7247L14.0498 17.7269ZM14.6761 17.8371C14.6562 17.9038 14.6326 17.9553 14.6326 17.9903C14.6326 18.0495 14.7151 18.0591 14.7796 18.0591H14.8014V18.1183C14.7223 18.1136 14.6431 18.111 14.5638 18.1106C14.4933 18.1106 14.423 18.1142 14.3524 18.1184V18.0591H14.3642C14.4406 18.0591 14.5055 18.0139 14.5344 17.9312L14.8485 17.0288C14.8738 16.956 14.9094 16.8576 14.9213 16.7848C14.9837 16.7634 15.0622 16.724 15.0994 16.7003C15.1054 16.6983 15.1089 16.6963 15.115 16.6963C15.1209 16.6963 15.1246 16.6963 15.129 16.7024C15.1347 16.7179 15.1404 16.7358 15.1467 16.7515L15.5074 17.7801C15.5309 17.8488 15.5542 17.9215 15.5796 17.9807C15.6032 18.0358 15.6446 18.0591 15.7094 18.0591H15.721V18.1184C15.6309 18.1136 15.5407 18.111 15.4506 18.1107C15.3544 18.1107 15.2562 18.1142 15.1562 18.1184V18.0591H15.1779C15.2228 18.0591 15.2995 18.0515 15.2995 18.0023C15.2995 17.9767 15.2818 17.9237 15.2599 17.8606L15.1837 17.6324H14.7386L14.6761 17.8371V17.8371ZM14.9622 16.9659H14.9582L14.7758 17.5224H15.1422L14.9622 16.9659Z" fill="#211E1F"/>
<path d="M15.7203 18.1267C15.6321 18.1227 15.5438 18.1187 15.4505 18.1187C15.3543 18.1187 15.2567 18.1227 15.1563 18.1267L15.1475 18.1272V18.0503H15.1777C15.2231 18.0503 15.2905 18.0399 15.2905 18.0022C15.2911 17.9798 15.2734 17.9259 15.2518 17.8632L15.1772 17.6408H14.7447L14.6838 17.8395C14.6639 17.9066 14.6404 17.9586 14.6405 17.9906C14.6412 18.0386 14.7145 18.0503 14.7795 18.0503H14.8097V18.1271L14.8009 18.1267C14.7224 18.1227 14.6423 18.1187 14.5641 18.1187C14.4938 18.1187 14.4232 18.1227 14.3529 18.1267L14.3438 18.1272V18.0503H14.364C14.437 18.05 14.4979 18.0085 14.5262 17.9284L14.8402 17.0259C14.8658 16.953 14.9012 16.855 14.9181 16.7766C14.9801 16.7544 15.0398 16.7261 15.0961 16.6922C15.1016 16.6903 15.107 16.6876 15.115 16.6876C15.1193 16.6874 15.1236 16.6884 15.1274 16.6904C15.1312 16.6925 15.1344 16.6955 15.1366 16.6991C15.1422 16.7153 15.1484 16.7327 15.1543 16.7487L15.5154 17.7772C15.5386 17.8462 15.562 17.9189 15.5875 17.977C15.6102 18.0295 15.6463 18.0501 15.7093 18.0503H15.7293V18.1272L15.7203 18.1267ZM15.1646 18.1091C15.2618 18.1057 15.3568 18.1019 15.4505 18.1019C15.5415 18.1019 15.6268 18.1057 15.7121 18.1091V18.068H15.7093C15.6422 18.0684 15.5957 18.042 15.5717 17.984C15.5461 17.9243 15.5222 17.8514 15.4993 17.7825L15.1382 16.7542C15.1323 16.7385 15.1265 16.7206 15.1214 16.7067C15.1198 16.7048 15.1201 16.7048 15.1185 16.7048H15.115C15.1109 16.7048 15.1086 16.706 15.1036 16.7074C15.0658 16.7321 14.9871 16.7707 14.929 16.7861C14.9169 16.8605 14.8817 16.9586 14.8561 17.0315L14.5424 17.9341C14.5125 18.0195 14.4437 18.0682 14.364 18.068H14.3609V18.1091C14.4281 18.1057 14.4961 18.1019 14.5641 18.1019C14.6398 18.1019 14.7173 18.1057 14.7921 18.1091V18.068H14.7795C14.7157 18.0672 14.6265 18.06 14.6241 17.9906C14.6242 17.9514 14.6483 17.901 14.6674 17.8346L14.676 17.8372L14.6674 17.8343L14.732 17.6241H15.1891L15.2678 17.8578C15.2898 17.921 15.3077 17.9733 15.3077 18.0022C15.3049 18.0626 15.2221 18.0668 15.1777 18.068H15.1646V18.1091ZM14.7638 17.5308L14.9516 16.9572H14.9622H14.9681L15.1541 17.5308H14.7638ZM14.7873 17.5138H15.1305L14.9599 16.9867L14.7873 17.5138ZM15.8071 16.8438C15.6599 16.8438 15.6542 16.8792 15.6246 17.0227H15.5657C15.5734 16.9677 15.5833 16.9127 15.5895 16.8555C15.5974 16.8004 15.6009 16.7455 15.6009 16.6886H15.6482C15.6639 16.7476 15.7131 16.7455 15.7657 16.7455H16.7778C16.8303 16.7455 16.8793 16.7437 16.8833 16.6845L16.9302 16.6924C16.9228 16.7455 16.915 16.7987 16.909 16.8518C16.9048 16.9048 16.9048 16.958 16.9048 17.011L16.8461 17.0328C16.8424 16.9602 16.8326 16.8438 16.7012 16.8438H16.3796V17.8901C16.3796 18.0417 16.4484 18.0591 16.5422 18.0591H16.5794V18.1183C16.503 18.1183 16.366 18.1106 16.26 18.1106C16.1425 18.1106 16.005 18.1183 15.9286 18.1183V18.0591H15.9657C16.0737 18.0591 16.1288 18.0494 16.1288 17.8942V16.8438H15.8071Z" fill="#211E1F"/>
<path d="M16.5796 18.1267C16.5026 18.1267 16.3653 18.1187 16.2601 18.1187C16.1429 18.1187 16.0056 18.1267 15.9287 18.1267H15.9201V18.0506H15.9658C16.0739 18.0479 16.1173 18.0466 16.1201 17.8942L16.1197 16.8523H15.8072V16.835H16.137V17.8942C16.137 18.0519 16.0735 18.0674 15.9658 18.0678H15.937V18.1099C16.0146 18.1091 16.1463 18.1019 16.2601 18.1019C16.3625 18.1019 16.4935 18.1091 16.571 18.1099V18.0679H16.5421C16.4478 18.0675 16.3714 18.0447 16.3712 17.8901V16.835H16.7013C16.8329 16.8355 16.8501 16.9478 16.8538 17.0206L16.8966 17.005C16.8966 16.9538 16.8968 16.9023 16.9006 16.8508C16.906 16.8002 16.9133 16.7498 16.9206 16.6996L16.8909 16.6945C16.882 16.7518 16.8266 16.755 16.7778 16.7541H15.7559C15.7097 16.7547 15.6597 16.7519 15.6418 16.6967H15.6098C15.6095 16.7502 15.6055 16.8036 15.5978 16.8565C15.5926 16.9107 15.5829 16.9627 15.5757 17.0144H15.6177C15.6437 16.8774 15.6606 16.8329 15.8072 16.835V16.8523C15.6618 16.8547 15.6651 16.8794 15.633 17.0248L15.6315 17.0315H15.5559L15.5571 17.0216C15.5653 16.9662 15.5751 16.9113 15.5808 16.8544C15.5888 16.7995 15.5926 16.745 15.5926 16.6885V16.6799H15.6546L15.6562 16.6861C15.67 16.7357 15.7057 16.7359 15.7559 16.7368L15.7658 16.737H16.7778C16.8319 16.736 16.8714 16.7351 16.8749 16.6839L16.8754 16.6745L16.8846 16.6764L16.9402 16.6852L16.9388 16.6937C16.9306 16.7464 16.9234 16.7993 16.9173 16.8523C16.9133 16.9047 16.9133 16.9579 16.9133 17.0109V17.017L16.9078 17.0192L16.8382 17.0446L16.8379 17.0331C16.8329 16.9592 16.8251 16.8522 16.7013 16.8522H16.3881V17.8901C16.3902 18.0384 16.4488 18.0487 16.5421 18.0506H16.588V18.1266H16.5796V18.1267ZM17.0028 18.059H17.0302C17.101 18.059 17.1751 18.0495 17.1751 17.947V16.9168C17.1751 16.8143 17.101 16.8046 17.0303 16.8046H17.0028V16.7455C17.0793 16.7455 17.1968 16.7533 17.2926 16.7533C17.391 16.7533 17.5086 16.7455 17.6009 16.7455V16.8046H17.5733C17.5028 16.8046 17.4281 16.8143 17.4281 16.9168V17.947C17.4281 18.0494 17.5028 18.0591 17.5733 18.0591H17.6009V18.1182C17.5066 18.1182 17.3889 18.1106 17.2911 18.1106C17.1949 18.1106 17.0793 18.1183 17.0028 18.1183V18.059Z" fill="#211E1F"/>
<path d="M17.6008 18.1266C17.5061 18.1266 17.3887 18.1186 17.2909 18.1186C17.1951 18.1186 17.0793 18.1266 17.0027 18.1266H16.9941V18.0506H17.0301C17.101 18.0494 17.166 18.0434 17.1663 17.947V16.9168C17.166 16.8208 17.101 16.8142 17.0301 16.8129H16.9941V16.7371H17.0027C17.0793 16.7371 17.197 16.7446 17.2925 16.7446C17.3903 16.7446 17.5079 16.7371 17.6008 16.7371H17.6091V16.8129H17.5733C17.5017 16.8142 17.4373 16.8208 17.4364 16.9168V17.947C17.4373 18.0434 17.5017 18.0494 17.5733 18.0506H17.6091V18.1266H17.6008V18.1266ZM17.592 18.1094V18.0678H17.5733C17.503 18.0678 17.4198 18.0554 17.4198 17.947V16.9168C17.4198 16.8081 17.503 16.7958 17.5733 16.7958H17.592V16.7542C17.5014 16.7546 17.3881 16.7618 17.2925 16.7618C17.1997 16.7618 17.0873 16.7546 17.0113 16.7542V16.7958H17.0302C17.0999 16.7958 17.1834 16.8081 17.1837 16.9168V17.947C17.1834 18.0554 17.0999 18.0678 17.0302 18.0678H17.0113V18.1094C17.0869 18.1086 17.1978 18.1019 17.2909 18.1019C17.386 18.1019 17.4995 18.109 17.5919 18.1094H17.592ZM18.3826 16.7161C18.8005 16.7161 19.1337 16.976 19.1337 17.3947C19.1337 17.8471 18.8102 18.1478 18.3929 18.1478C17.9768 18.1478 17.6594 17.8646 17.6594 17.4418C17.6594 17.0328 17.9749 16.7161 18.3826 16.7161ZM18.4122 18.0612C18.7927 18.0612 18.8589 17.7246 18.8589 17.4379C18.8589 17.1505 18.7045 16.8026 18.3789 16.8026C18.0357 16.8026 17.9338 17.1093 17.9338 17.3726C17.9338 17.7246 18.0945 18.0612 18.4122 18.0612Z" fill="#211E1F"/>
<path d="M17.6509 17.4418C17.6517 17.0281 17.9709 16.7081 18.3827 16.7075V16.7244C17.9798 16.7244 17.6678 17.0371 17.6675 17.4418C17.6684 17.8599 17.9813 18.1388 18.393 18.1389C18.8062 18.1388 19.1251 17.8423 19.1258 17.3943C19.1254 16.9809 18.7972 16.725 18.3827 16.7244V16.7075C18.8039 16.7078 19.1415 16.9703 19.1424 17.3943C19.142 17.8515 18.8143 18.1553 18.393 18.1561C17.9737 18.1553 17.6517 17.8692 17.6509 17.4417V17.4418ZM17.9255 17.3727C17.9261 17.1082 18.0291 16.7937 18.3791 16.7937C18.7119 16.7945 18.8674 17.1491 18.8679 17.4379C18.8673 17.7247 18.8 18.0694 18.4126 18.0694V18.0527C18.7854 18.0522 18.8499 17.7247 18.8509 17.4379C18.8509 17.1529 18.6978 16.8115 18.3791 16.8111C18.0427 16.8115 17.9431 17.1107 17.9426 17.3727C17.9428 17.7229 18.102 18.0519 18.4126 18.0527V18.0694C18.087 18.069 17.9261 17.7267 17.9255 17.3726V17.3727ZM20.4551 17.7307L20.4591 17.7269V16.9895C20.4591 16.8281 20.3471 16.8047 20.2882 16.8047H20.2458V16.7455C20.3377 16.7455 20.4278 16.7533 20.5197 16.7533C20.6003 16.7533 20.6806 16.7455 20.7612 16.7455V16.8047H20.7316C20.6494 16.8047 20.5571 16.8203 20.5571 17.0543V17.9493C20.5571 18.018 20.559 18.0867 20.569 18.1477H20.4946L19.4846 17.0189V17.8291C19.4846 18.0003 19.5178 18.0591 19.6687 18.0591H19.7023V18.1183C19.6178 18.1183 19.5338 18.1106 19.4494 18.1106C19.3612 18.1106 19.2708 18.1183 19.1826 18.1183V18.0591H19.2102C19.3457 18.0591 19.3863 17.9669 19.3863 17.8097V16.9814C19.3863 16.8713 19.2966 16.8046 19.2081 16.8046H19.1825V16.7456C19.257 16.7456 19.3336 16.7534 19.4079 16.7534C19.4668 16.7534 19.5235 16.7456 19.5826 16.7456L20.4551 17.7307Z" fill="#211E1F"/>
<path d="M20.5689 18.1562L20.4878 18.1533L19.493 17.0411V17.8292C19.4951 18.0002 19.521 18.0486 19.6683 18.0503H19.7107V18.1267H19.7022C19.6172 18.1267 19.533 18.1187 19.4493 18.1187C19.3613 18.1187 19.2713 18.1267 19.1822 18.1267H19.1741V18.0503H19.21C19.3393 18.0499 19.3764 17.9665 19.378 17.8097V16.9814C19.3778 16.8767 19.2922 16.8131 19.2079 16.813H19.1741V16.7371H19.1822C19.2574 16.7371 19.3338 16.7447 19.4078 16.7447C19.466 16.7447 19.5226 16.7371 19.5889 16.74L20.4503 17.7129V16.9897C20.4498 16.8332 20.3454 16.8143 20.2879 16.813H20.2365V16.7372H20.2453C20.3376 16.7372 20.428 16.7447 20.5193 16.7447C20.5998 16.7447 20.6797 16.7372 20.761 16.7372H20.7694V16.813H20.7314C20.6507 16.8154 20.5673 16.8227 20.5656 17.0543V17.9492C20.5656 18.0179 20.5671 18.0865 20.5766 18.1467L20.5782 18.1562H20.5689ZM20.4945 18.139H20.5586C20.55 18.0799 20.5486 18.0145 20.5486 17.9491V17.0543C20.5486 16.8179 20.6474 16.7965 20.7314 16.7958H20.7526V16.7542C20.6753 16.7547 20.5978 16.7619 20.5194 16.7619C20.4302 16.7619 20.3424 16.7547 20.2537 16.7542V16.7958H20.2881C20.3489 16.7965 20.4671 16.8234 20.4671 16.9897L20.465 17.7328L20.4613 17.7368L20.455 17.7432L19.5824 16.7543C19.5246 16.7543 19.4674 16.7619 19.4078 16.7619C19.3357 16.7619 19.2621 16.7547 19.1907 16.7543V16.7959H19.208C19.3 16.7965 19.3948 16.8662 19.3948 16.9814V17.8097C19.3948 17.9669 19.351 18.0675 19.21 18.0681L19.1907 18.0679V18.1095C19.2758 18.1091 19.3631 18.102 19.4493 18.102C19.531 18.102 19.6122 18.1091 19.6937 18.1095V18.0681H19.6683C19.5145 18.0679 19.476 18.0002 19.476 17.8292V16.9967L20.4944 18.139H20.4945ZM20.4504 17.7269V17.7263L20.4488 17.7247L20.4504 17.7269ZM21.0761 17.8371C21.0569 17.9038 21.0331 17.9553 21.0331 17.9903C21.0331 18.0495 21.1157 18.0591 21.18 18.0591H21.2018V18.1183C21.1228 18.1136 21.0436 18.111 20.9645 18.1106C20.8936 18.1106 20.8234 18.1142 20.753 18.1184V18.0591H20.7642C20.841 18.0591 20.906 18.0139 20.935 17.9312L21.249 17.0288C21.2743 16.956 21.3098 16.8576 21.3213 16.7848C21.3835 16.7626 21.4433 16.7343 21.5 16.7003C21.5056 16.6983 21.5096 16.6963 21.5155 16.6963C21.5214 16.6963 21.525 16.6963 21.529 16.7024C21.535 16.7179 21.5411 16.7358 21.547 16.7515L21.9075 17.7801C21.931 17.8488 21.9544 17.9215 21.9802 17.9807C22.0038 18.0358 22.045 18.0591 22.1095 18.0591H22.1215V18.1184C22.0313 18.1136 21.941 18.111 21.8506 18.1107C21.7526 18.1112 21.6545 18.1138 21.5566 18.1184V18.0591H21.5783C21.6231 18.0591 21.7 18.0515 21.7 18.0023C21.7 17.9767 21.6822 17.9237 21.6603 17.8606L21.5842 17.6324H21.139L21.0761 17.8371V17.8371ZM21.3627 16.9659H21.3587L21.1762 17.5224H21.5431L21.3627 16.9659Z" fill="#211E1F"/>
<path d="M22.1205 18.1267C22.0323 18.1231 21.9442 18.1187 21.8505 18.1187C21.755 18.1187 21.6569 18.1231 21.5568 18.1267L21.5481 18.1272V18.0506H21.5778C21.6234 18.0506 21.6911 18.0399 21.6912 18.0022C21.6916 17.9798 21.674 17.9262 21.6521 17.8632L21.5776 17.6408H21.1448L21.0841 17.8395C21.0646 17.9069 21.0412 17.9586 21.0416 17.9903C21.0416 18.0386 21.115 18.0506 21.1799 18.0506H21.2098V18.1272L21.201 18.1267C21.1226 18.1231 21.0424 18.1187 20.9644 18.1187C20.8941 18.1187 20.8236 18.1231 20.7529 18.1267L20.7444 18.1272V18.0506H20.7641C20.8373 18.0503 20.8985 18.0082 20.927 17.9284L21.2408 17.0259C21.2658 16.953 21.3011 16.855 21.3185 16.7768C21.3801 16.7554 21.4589 16.7162 21.4969 16.6921C21.5021 16.6903 21.5073 16.6881 21.5153 16.6881C21.5197 16.6876 21.524 16.6885 21.5279 16.6905C21.5317 16.6925 21.5349 16.6956 21.5369 16.6994C21.5427 16.7149 21.5485 16.7327 21.5549 16.7487L21.9155 17.7772C21.9389 17.8462 21.9625 17.9188 21.9878 17.9774C22.0109 18.0295 22.0466 18.05 22.1091 18.0506H22.1295V18.1272L22.1205 18.1267ZM21.5649 18.1094C21.6618 18.1057 21.7573 18.1019 21.8505 18.1019C21.9417 18.1019 22.0273 18.1057 22.1127 18.1091L22.1124 18.068H22.1092C22.0428 18.0682 21.9965 18.042 21.9721 17.984C21.9463 17.9243 21.9229 17.8514 21.8995 17.7827L21.5387 16.7542C21.5328 16.7385 21.5269 16.7206 21.5221 16.7073C21.5205 16.7048 21.5206 16.7048 21.5191 16.7048H21.5154C21.5113 16.7048 21.5091 16.7062 21.5044 16.7075C21.4662 16.7317 21.3876 16.7709 21.3296 16.7861C21.3174 16.8605 21.2818 16.9586 21.2565 17.0315L20.9426 17.9342C20.9129 18.0194 20.8443 18.0682 20.7641 18.068H20.7613V18.1091C20.8287 18.1057 20.8961 18.1019 20.9644 18.1019C21.0404 18.1019 21.1177 18.1057 21.1932 18.1091V18.068H21.1798C21.1161 18.0672 21.0266 18.0602 21.0243 17.9903C21.0247 17.9513 21.0491 17.9013 21.068 17.8346L21.076 17.8372L21.068 17.8343L21.1325 17.6241H21.5898L21.6684 17.8577C21.69 17.9211 21.7078 17.9733 21.7078 18.0022C21.7049 18.0626 21.6227 18.0668 21.5778 18.068H21.5649L21.5649 18.1094ZM21.1644 17.5306L21.3524 16.9572H21.3626H21.3687L21.5541 17.5306H21.1644ZM21.1879 17.5138H21.5308L21.3603 16.987L21.1879 17.5138ZM21.3545 16.9682L21.3584 16.9667L21.3544 16.9682H21.3545ZM22.6154 17.9255C22.6154 18.0042 22.6698 18.0277 22.7326 18.0357C22.813 18.0417 22.9013 18.0417 22.9918 18.0317C23.0739 18.0218 23.1446 17.9746 23.1797 17.9255C23.2109 17.8822 23.2286 17.8271 23.2405 17.7839H23.2973C23.2758 17.8959 23.2483 18.0063 23.2247 18.1183C23.0525 18.1183 22.8797 18.1106 22.7073 18.1106C22.5345 18.1106 22.3623 18.1183 22.1897 18.1183V18.0591H22.2167C22.2877 18.0591 22.3644 18.0494 22.3644 17.9274V16.9168C22.3644 16.8143 22.2876 16.8046 22.2167 16.8046H22.1897V16.7456C22.2933 16.7456 22.3955 16.7534 22.4992 16.7534C22.5995 16.7534 22.6974 16.7456 22.7975 16.7456V16.8046H22.7481C22.6739 16.8046 22.6154 16.8068 22.6154 16.9107V17.9255Z" fill="#211E1F"/>
<path d="M23.2247 18.1267C23.0519 18.1267 22.8794 18.1188 22.7074 18.1188C22.5347 18.1188 22.3622 18.1267 22.1894 18.1267H22.1811V18.0507H22.2167C22.2879 18.049 22.355 18.0441 22.3558 17.9275V16.9165C22.355 16.8209 22.2882 16.8143 22.2167 16.813H22.1811V16.7371H22.1894C22.2937 16.7371 22.3958 16.7447 22.4994 16.7447C22.599 16.7447 22.6968 16.7371 22.7975 16.7371H22.8056V16.813H22.7483C22.6723 16.8151 22.625 16.8116 22.6235 16.9107V17.9256C22.6241 17.9988 22.6719 18.0186 22.7331 18.0272C22.7678 18.0296 22.8041 18.0311 22.8419 18.0311C22.8899 18.0311 22.9398 18.0288 22.9904 18.0234C23.0703 18.0139 23.1391 17.9677 23.1728 17.9208C23.203 17.8788 23.2204 17.8248 23.2321 17.7819L23.2339 17.7754H23.3077L23.3059 17.7858C23.2838 17.8982 23.2569 18.0082 23.2331 18.12L23.2315 18.1267L23.2247 18.1267ZM23.2177 18.1095C23.2404 18.0029 23.2661 17.8986 23.2872 17.7923H23.2469C23.2346 17.8351 23.2173 17.8878 23.1864 17.9307C23.1498 17.9818 23.0772 18.0298 22.9922 18.0403C22.9409 18.0455 22.89 18.0483 22.8418 18.0483C22.8039 18.0483 22.7671 18.0465 22.7316 18.044C22.6678 18.037 22.606 18.0096 22.6062 17.9256V16.9107C22.6062 16.8015 22.6752 16.7959 22.7483 16.7959H22.7889V16.7541C22.6922 16.7547 22.597 16.7619 22.4994 16.7619C22.3978 16.7619 22.2986 16.7547 22.198 16.7541V16.7959H22.2167C22.2867 16.7959 22.3724 16.8081 22.3724 16.9163V17.9274C22.3724 18.0546 22.2871 18.0679 22.2167 18.0679H22.198V18.1095C22.3675 18.1093 22.537 18.1019 22.7074 18.1019C22.8778 18.1019 23.048 18.1093 23.2177 18.1095V18.1095ZM23.2735 16.6897C23.3917 16.6897 23.4799 16.7808 23.4799 16.8975C23.4799 17.0137 23.3917 17.1039 23.2735 17.1039C23.1554 17.1039 23.067 17.0137 23.067 16.8975C23.067 16.7808 23.1554 16.6897 23.2735 16.6897ZM23.2735 17.0654C23.3658 17.0654 23.4369 16.9863 23.4369 16.8975C23.4369 16.8082 23.367 16.7284 23.2735 16.7284C23.1807 16.7284 23.1097 16.8082 23.1097 16.8975C23.1097 16.9863 23.1807 17.0654 23.2735 17.0654ZM23.1707 17.0066V16.9963C23.1962 16.9928 23.2008 16.9936 23.2008 16.9778V16.8246C23.2008 16.803 23.1984 16.7956 23.1717 16.7967V16.7863H23.2773C23.3138 16.7863 23.3471 16.8035 23.3471 16.8412C23.3471 16.872 23.3267 16.8948 23.2983 16.9036L23.3322 16.9511C23.348 16.9727 23.3658 16.9928 23.3777 16.9999V17.0066H23.3374C23.3182 17.0066 23.3013 16.9658 23.2632 16.9111H23.2403V16.9799C23.2403 16.9935 23.2451 16.9927 23.2706 16.9963V17.0066H23.1707ZM23.2403 16.8975H23.2647C23.2914 16.8975 23.3038 16.8772 23.3038 16.8447C23.3038 16.8116 23.2846 16.8 23.2634 16.8H23.2403V16.8975ZM6.78344 13.836C6.78344 13.511 6.6144 13.5323 6.45232 13.5288V13.4349C6.5928 13.4419 6.7368 13.4419 6.87752 13.4419C7.0288 13.4419 7.23432 13.4349 7.50096 13.4349C8.43392 13.4349 8.942 14.0599 8.942 14.6999C8.942 15.0579 8.7332 15.9575 7.4576 15.9575C7.27392 15.9575 7.1044 15.9505 6.9352 15.9505C6.77304 15.9505 6.6144 15.9541 6.45232 15.9576V15.8638C6.66832 15.8419 6.77312 15.8347 6.78336 15.5889V13.8361L6.78344 13.836ZM7.13664 15.5312C7.13664 15.8095 7.33504 15.842 7.51144 15.842C8.29 15.842 8.5456 15.2528 8.5456 14.7143C8.5456 14.0387 8.11312 13.5507 7.41784 13.5507C7.26984 13.5507 7.20184 13.5614 7.13664 13.5652V15.5312ZM9.06848 15.8638H9.13672C9.23752 15.8638 9.30968 15.8638 9.30968 15.7443V14.765C9.30968 14.6061 9.25568 14.584 9.12232 14.5122V14.4543C9.2916 14.4032 9.4936 14.3351 9.50776 14.3242C9.5332 14.3097 9.55464 14.3059 9.57272 14.3059C9.59056 14.3059 9.59808 14.3277 9.59808 14.3567V15.7443C9.59808 15.8638 9.67728 15.8638 9.77816 15.8638H9.83936V15.9578C9.71672 15.9578 9.59056 15.9506 9.46112 15.9506C9.33144 15.9506 9.2016 15.9541 9.06848 15.9578V15.8638ZM9.45392 13.7494C9.36008 13.7494 9.27744 13.6627 9.27744 13.5687C9.27744 13.4783 9.36392 13.3949 9.45392 13.3949C9.54728 13.3949 9.63056 13.4711 9.63056 13.5687C9.63056 13.6663 9.55096 13.7494 9.45392 13.7494ZM10.1817 14.7865C10.1817 14.6529 10.1418 14.6169 9.97288 14.5482V14.4796C10.1277 14.4291 10.2753 14.382 10.4483 14.3059C10.459 14.3059 10.4696 14.3133 10.4696 14.342V14.5771C10.6754 14.4291 10.852 14.3059 11.0937 14.3059C11.3996 14.3059 11.5077 14.53 11.5077 14.8119V15.7443C11.5077 15.8638 11.5869 15.8638 11.6879 15.8638H11.7528V15.9578C11.6264 15.9578 11.5003 15.9506 11.3709 15.9506C11.241 15.9506 11.1112 15.9541 10.9817 15.9578V15.8638H11.0463C11.1475 15.8638 11.2191 15.8638 11.2191 15.7443V14.8084C11.2191 14.6022 11.0937 14.5011 10.8879 14.5011C10.7728 14.5011 10.589 14.5951 10.4696 14.6747V15.7442C10.4696 15.8638 10.5493 15.8638 10.6503 15.8638H10.715V15.9578C10.589 15.9578 10.4627 15.9506 10.333 15.9506C10.2034 15.9506 10.0734 15.9541 9.94384 15.9578V15.8638H10.0089C10.1097 15.8638 10.1817 15.8638 10.1817 15.7442V14.7865ZM12.0268 14.9602C12.0193 14.9928 12.0193 15.0469 12.0268 15.1699C12.048 15.5131 12.2684 15.795 12.5562 15.795C12.7546 15.795 12.9098 15.6866 13.043 15.5529L13.0932 15.6037C12.9274 15.824 12.722 16.0119 12.4268 16.0119C11.8537 16.0119 11.7384 15.4551 11.7384 15.2241C11.7384 14.5156 12.2139 14.3059 12.466 14.3059C12.758 14.3059 13.0718 14.4901 13.0751 14.8732C13.0751 14.8951 13.0751 14.9166 13.0718 14.9385L13.0391 14.9602H12.0268ZM12.6647 14.8445C12.7546 14.8445 12.7652 14.7975 12.7652 14.7542C12.7652 14.5699 12.6535 14.4216 12.4516 14.4216C12.2321 14.4216 12.0807 14.584 12.0375 14.8445H12.6647ZM13.1581 15.8638H13.2554C13.356 15.8638 13.4281 15.8638 13.4281 15.7443V14.7288C13.4281 14.6168 13.295 14.5951 13.2408 14.5662V14.5122C13.5038 14.3999 13.6481 14.3059 13.6808 14.3059C13.7022 14.3059 13.7128 14.3168 13.7128 14.3531V14.6783H13.7204C13.8103 14.5375 13.9619 14.3059 14.1814 14.3059C14.2716 14.3059 14.3868 14.3672 14.3868 14.4975C14.3868 14.5951 14.3185 14.6821 14.2177 14.6821C14.1055 14.6821 14.1055 14.5951 13.9796 14.5951C13.9182 14.5951 13.7166 14.6783 13.7166 14.8951V15.7443C13.7166 15.8638 13.7886 15.8638 13.8896 15.8638H14.0912V15.9578C13.893 15.9541 13.7422 15.9506 13.587 15.9506C13.4393 15.9506 13.2878 15.9541 13.1582 15.9578L13.1581 15.8638ZM14.5454 15.4551C14.5924 15.6938 14.7363 15.8963 14.9995 15.8963C15.2117 15.8963 15.291 15.7662 15.291 15.6397C15.291 15.2131 14.5058 15.3505 14.5058 14.7687C14.5058 14.5662 14.6681 14.3059 15.0642 14.3059C15.1794 14.3059 15.3342 14.3387 15.4747 14.411L15.5002 14.7793H15.4172C15.3812 14.5519 15.2553 14.4217 15.0244 14.4217C14.8803 14.4217 14.7435 14.5049 14.7435 14.6601C14.7435 15.0833 15.5794 14.9529 15.5794 15.5203C15.5794 15.7587 15.3884 16.0119 14.9595 16.0119C14.8154 16.0119 14.6462 15.9613 14.5202 15.8892L14.4804 15.4735L14.5454 15.4551ZM18.833 14.0891H18.7432C18.6746 13.6664 18.3756 13.4963 17.9722 13.4963C17.5575 13.4963 16.9558 13.7745 16.9558 14.6419C16.9558 15.3724 17.475 15.8963 18.0297 15.8963C18.3863 15.8963 18.682 15.6506 18.7541 15.271L18.8367 15.2925L18.7541 15.8202C18.6027 15.9143 18.1955 16.0119 17.9574 16.0119C17.1146 16.0119 16.5814 15.4661 16.5814 14.6529C16.5814 13.9119 17.2406 13.3805 17.9469 13.3805C18.2386 13.3805 18.5197 13.4748 18.7971 13.5725L18.833 14.0891ZM18.963 15.8638H19.0313C19.1323 15.8638 19.2046 15.8638 19.2046 15.7443V13.7315C19.2046 13.4963 19.1506 13.4891 19.0134 13.4495V13.3916C19.1576 13.3447 19.309 13.2796 19.3846 13.2361C19.4238 13.2145 19.453 13.1963 19.4637 13.1963C19.4857 13.1963 19.4929 13.2181 19.4929 13.2471V15.7443C19.4929 15.8638 19.572 15.8638 19.673 15.8638H19.7338V15.9578C19.6118 15.9578 19.4857 15.9506 19.3558 15.9506C19.2262 15.9506 19.0966 15.9541 18.963 15.9578V15.8638ZM21.2766 15.7587C21.2766 15.824 21.3161 15.8275 21.3772 15.8275C21.4206 15.8275 21.4745 15.824 21.5214 15.824V15.9C21.3664 15.9144 21.0709 15.9904 21.0024 16.0119L20.9843 16.001V15.7085C20.7683 15.8855 20.6024 16.0119 20.3464 16.0119C20.1518 16.0119 19.9501 15.8855 19.9501 15.5821V14.6565C19.9501 14.5627 19.9357 14.4722 19.7343 14.4543V14.3855C19.8642 14.3819 20.1518 14.3603 20.1989 14.3603C20.2389 14.3603 20.2389 14.3855 20.2389 14.4651V15.3972C20.2389 15.5059 20.2389 15.8166 20.5521 15.8166C20.6745 15.8166 20.8366 15.7227 20.9878 15.5966V14.6238C20.9878 14.5518 20.815 14.5122 20.6856 14.4759V14.4108C21.0094 14.3891 21.2116 14.3603 21.2474 14.3603C21.2766 14.3603 21.2766 14.3855 21.2766 14.4255V15.7587ZM21.9936 14.5662C22.1376 14.4433 22.332 14.3059 22.5304 14.3059C22.9486 14.3059 23.2005 14.6713 23.2005 15.0649C23.2005 15.5383 22.8547 16.0119 22.3391 16.0119C22.0726 16.0119 21.9322 15.9251 21.8383 15.8855L21.7305 15.9683L21.655 15.9288C21.687 15.7156 21.7054 15.5059 21.7054 15.2855V13.7315C21.7054 13.4963 21.651 13.4891 21.5142 13.4495V13.3916C21.6587 13.3447 21.8096 13.2796 21.8854 13.2361C21.925 13.2145 21.9537 13.1963 21.9649 13.1963C21.9863 13.1963 21.9935 13.2181 21.9935 13.2471L21.9936 14.5662ZM21.9936 15.5491C21.9936 15.6866 22.1231 15.9181 22.3646 15.9181C22.7502 15.9181 22.9122 15.5383 22.9122 15.2166C22.9122 14.8263 22.617 14.5011 22.3359 14.5011C22.2022 14.5011 22.0908 14.588 21.9935 14.6713L21.9936 15.5491ZM6.44824 18.0591H6.47584C6.54624 18.0591 6.62072 18.0495 6.62072 17.9471V16.9168C6.62072 16.8143 6.54624 16.8046 6.47584 16.8046H6.44824V16.7455C6.5248 16.7455 6.6424 16.7534 6.7388 16.7534C6.83664 16.7534 6.95416 16.7455 7.04632 16.7455V16.8046H7.01872C6.9484 16.8046 6.87376 16.8143 6.87376 16.9168V17.9471C6.87376 18.0495 6.9484 18.0591 7.01872 18.0591H7.04632V18.1183C6.95224 18.1183 6.83432 18.1106 6.73656 18.1106C6.64048 18.1106 6.5248 18.1183 6.44824 18.1183V18.0591Z" fill="#211E1F"/>
<path d="M7.04642 18.1267C6.9517 18.1267 6.83426 18.1187 6.73658 18.1187C6.64074 18.1187 6.52546 18.1267 6.44834 18.1267H6.43994V18.0506H6.47586C6.5469 18.049 6.61162 18.0432 6.61234 17.947V16.9168C6.61162 16.8207 6.5469 16.8142 6.47586 16.8129H6.43994V16.7368H6.44834C6.52546 16.7368 6.6429 16.7446 6.73874 16.7446C6.83634 16.7446 6.9537 16.7368 7.04642 16.7368H7.05522V16.8129H7.01898C6.94786 16.8142 6.88274 16.8207 6.88234 16.9168V17.947C6.88274 18.0432 6.94786 18.0489 7.01898 18.0506H7.05514V18.1266H7.04642V18.1267ZM7.03802 18.1099V18.0679H7.01898C6.94898 18.0679 6.86562 18.0557 6.86522 17.947V16.9168C6.86562 16.8081 6.94898 16.7958 7.01898 16.7958H7.03802V16.7541C6.94746 16.7541 6.83394 16.7618 6.73882 16.7618C6.64562 16.7618 6.5329 16.7547 6.45706 16.7541V16.7958H6.47578C6.5457 16.7958 6.62938 16.8081 6.62938 16.9168V17.947C6.62938 18.0558 6.5457 18.0679 6.47578 18.0679H6.45706V18.1099C6.5329 18.1091 6.6437 18.1019 6.73658 18.1019C6.83202 18.1019 6.94554 18.1093 7.03802 18.1099ZM8.39338 17.7306L8.39738 17.7268V16.9894C8.39738 16.828 8.28538 16.8047 8.22674 16.8047H8.18346V16.7455C8.27578 16.7455 8.36586 16.7533 8.45794 16.7533C8.53826 16.7533 8.61906 16.7455 8.6993 16.7455V16.8046H8.66994C8.58738 16.8046 8.49522 16.8203 8.49522 17.0542V17.9492C8.49522 18.018 8.49722 18.0867 8.5069 18.1476H8.43226L7.42274 17.0188V17.8291C7.42274 18.0002 7.45578 18.059 7.60698 18.059H7.64018V18.1183C7.55602 18.1183 7.47186 18.1106 7.38738 18.1106C7.29938 18.1106 7.20914 18.1183 7.12082 18.1183V18.059H7.14826C7.28354 18.059 7.32458 17.9668 7.32458 17.8096V16.9813C7.32458 16.8713 7.23418 16.8046 7.14634 16.8046H7.12074V16.7455C7.1953 16.7455 7.2717 16.7533 7.3461 16.7533C7.40498 16.7533 7.46194 16.7455 7.52066 16.7455L8.39338 17.7306Z" fill="#211E1F"/>
<path d="M8.50686 18.1563L8.42606 18.1532L7.43102 17.0411V17.8291C7.43342 18.0002 7.45934 18.0487 7.60702 18.0506H7.64902V18.1267H7.64022C7.55542 18.1267 7.47102 18.1187 7.38742 18.1187C7.29958 18.1187 7.20958 18.1267 7.12062 18.1267H7.11206V18.0506H7.14822C7.27782 18.0499 7.31478 17.9665 7.31622 17.8097V16.9815C7.31598 16.8767 7.23038 16.8132 7.1463 16.813H7.11206V16.7371H7.12062C7.19558 16.7371 7.27238 16.7447 7.3459 16.7447C7.4043 16.7447 7.4611 16.7371 7.52718 16.74L8.38878 17.7128V16.9896C8.38774 16.8331 8.28374 16.8143 8.22662 16.813H8.1747V16.7371H8.18342C8.27606 16.7371 8.3663 16.7447 8.4579 16.7447C8.53774 16.7447 8.61806 16.7371 8.6991 16.7371H8.70766V16.8129H8.6699C8.58902 16.8153 8.5059 16.8223 8.50366 17.0543V17.9491C8.50366 18.0179 8.50566 18.0866 8.51518 18.1462L8.5171 18.1563H8.50686ZM8.43246 18.1389H8.49726C8.48846 18.0799 8.48686 18.0144 8.48686 17.9491V17.0543C8.48686 16.8183 8.5855 16.7959 8.6699 16.7959H8.69062V16.7542C8.61334 16.7547 8.5359 16.7618 8.45798 16.7618C8.36822 16.7618 8.28094 16.7547 8.19214 16.7542L8.19206 16.7959H8.2267C8.28694 16.7959 8.4059 16.8229 8.4059 16.9896L8.40318 17.7327L8.39918 17.7368L8.39262 17.743L7.52062 16.7542C7.46246 16.7542 7.40566 16.7618 7.34598 16.7618C7.27398 16.7618 7.20046 16.7547 7.12942 16.7542L7.12894 16.7959H7.14638C7.23838 16.7959 7.33294 16.8663 7.33294 16.9815V17.8096C7.33294 17.9668 7.28926 18.0675 7.1483 18.068L7.12942 18.0675V18.1099C7.21438 18.1091 7.30166 18.1019 7.38742 18.1019C7.46926 18.1019 7.5507 18.1091 7.63174 18.1099V18.068H7.60694C7.4527 18.0675 7.41438 18.0001 7.41414 17.8291V16.9967L8.43246 18.1389ZM8.38886 17.7267V17.7261L8.38726 17.7247L8.38886 17.7267ZM8.99286 16.8438C8.84558 16.8438 8.84006 16.8792 8.81062 17.0227H8.75174C8.7595 16.9677 8.76934 16.9127 8.77526 16.8555C8.78318 16.8004 8.78694 16.7455 8.78694 16.6886H8.83414C8.8499 16.7476 8.89894 16.7455 8.95206 16.7455H9.96342C10.0165 16.7455 10.0654 16.7437 10.0695 16.6845L10.1162 16.6924C10.1086 16.7455 10.1007 16.7987 10.0948 16.8518C10.0913 16.9048 10.0913 16.958 10.0913 17.011L10.0322 17.0329C10.0281 16.9602 10.0184 16.8438 9.88718 16.8438H9.56558V17.8901C9.56558 18.0417 9.6343 18.0591 9.72806 18.0591H9.7655V18.1183C9.68902 18.1183 9.55158 18.1106 9.44598 18.1106C9.32838 18.1106 9.19094 18.1183 9.11438 18.1183V18.0591H9.15174C9.25982 18.0591 9.31446 18.0494 9.31446 17.8942V16.8438H8.99286Z" fill="#211E1F"/>
<path d="M9.76587 18.1266C9.68867 18.1266 9.55147 18.1187 9.44611 18.1187C9.32867 18.1187 9.19147 18.1266 9.11451 18.1266H9.10635V18.0506H9.15195C9.25995 18.048 9.30347 18.0466 9.30595 17.8942V16.8522H8.99291V16.8349H9.32283V17.8941C9.32283 18.0518 9.25955 18.0678 9.15187 18.0679H9.12307V18.1094C9.20035 18.109 9.33227 18.1019 9.44603 18.1019C9.54827 18.1019 9.67939 18.109 9.75683 18.1094V18.0679H9.72819C9.63339 18.0678 9.55715 18.0445 9.55715 17.89V16.8349H9.88723C10.0188 16.8354 10.036 16.9477 10.0403 17.0206L10.0826 17.005C10.0826 16.9537 10.0829 16.9022 10.0864 16.8505C10.0921 16.7998 10.0993 16.7497 10.1067 16.6995L10.0767 16.6945C10.0676 16.7518 10.0126 16.7546 9.96315 16.7541H8.94203C8.89595 16.7541 8.84555 16.7518 8.82795 16.697H8.79563C8.79539 16.7503 8.79163 16.8036 8.78403 16.8564C8.77835 16.9105 8.76939 16.9624 8.76203 17.0143H8.80403C8.82987 16.8773 8.84667 16.8329 8.99291 16.8349V16.8522C8.84803 16.8548 8.85107 16.8794 8.81915 17.0247L8.81763 17.0314H8.74219L8.74331 17.0212C8.75115 16.9661 8.76107 16.9113 8.76691 16.854C8.77507 16.7994 8.77891 16.7449 8.77891 16.6884V16.6798H8.84107L8.84243 16.686C8.85587 16.7356 8.89219 16.7359 8.94203 16.7367H9.96339C10.018 16.7359 10.0578 16.7351 10.0611 16.6837L10.0619 16.6744L10.0707 16.6763L10.1261 16.6851L10.1249 16.6936C10.1167 16.7463 10.1096 16.7992 10.1035 16.8522C10.0995 16.9046 10.0995 16.9578 10.0995 17.0108V17.017L10.0942 17.0191L10.0247 17.0445L10.0242 17.033C10.019 16.9591 10.0112 16.8522 9.88739 16.8522H9.57443V17.8899C9.57619 18.0383 9.63491 18.0486 9.72827 18.0504H9.77427V18.1265H9.76595L9.76587 18.1266ZM10.1791 18.059H10.2067C10.2771 18.059 10.3517 18.0494 10.3517 17.947V16.9168C10.3517 16.8142 10.2771 16.8046 10.2067 16.8046H10.1791V16.7455C10.2984 16.7455 10.5027 16.7533 10.6671 16.7533C10.8321 16.7533 11.0356 16.7455 11.1688 16.7455C11.1658 16.8458 11.1672 16.9462 11.1732 17.0463L11.114 17.0622C11.1047 16.9344 11.0812 16.8322 10.8751 16.8322H10.6028V17.3473H10.8359C10.9535 17.3473 10.9791 17.2806 10.9907 17.1741H11.0495C11.0416 17.3255 11.0416 17.4771 11.0495 17.6285L10.9907 17.6402C10.9792 17.5223 10.9732 17.4457 10.8378 17.4457H10.6029V17.9037C10.6029 18.0317 10.7161 18.0317 10.8418 18.0317C11.0771 18.0317 11.1808 18.0158 11.2397 17.7919L11.2947 17.8054C11.2685 17.9088 11.2464 18.0132 11.2282 18.1183C11.1026 18.1183 10.877 18.1106 10.7007 18.1106C10.5239 18.1106 10.2909 18.1183 10.1791 18.1183L10.1791 18.059Z" fill="#211E1F"/>
<path d="M11.2279 18.1266C11.1019 18.1266 10.8766 18.1186 10.7005 18.1186C10.5239 18.1186 10.2909 18.1266 10.1789 18.1266H10.1707V18.0506H10.2064C10.2775 18.0495 10.3419 18.0432 10.3429 17.9471V16.9168C10.3419 16.8208 10.2775 16.8144 10.2064 16.8129H10.1707V16.7371H10.1789C10.2986 16.7371 10.5025 16.7446 10.6669 16.7446C10.8318 16.7446 11.0352 16.7371 11.1687 16.7371H11.1775L11.1771 16.7459C11.1757 16.7798 11.1751 16.8136 11.1752 16.8474C11.1752 16.9154 11.1771 16.9898 11.1811 17.0458L11.1814 17.0529L11.1748 17.0548L11.1059 17.0728L11.1055 17.0627C11.0939 16.9351 11.077 16.8426 10.8751 16.8406H10.6109L10.6107 17.3384H10.8358C10.9486 17.3374 10.9689 17.2794 10.9822 17.1734L10.983 17.1657H11.0581L11.0579 17.1745C11.054 17.2511 11.0519 17.3277 11.0517 17.4044C11.0517 17.4788 11.0541 17.5534 11.0579 17.6283L11.0581 17.6353L11.051 17.6369L10.983 17.6505L10.9822 17.6413C10.9687 17.5213 10.9678 17.4555 10.8375 17.4541L10.6109 17.4539V17.9038C10.6111 18.0232 10.7138 18.0225 10.8416 18.0232C11.0776 18.0218 11.1723 18.0104 11.2315 17.7894L11.2334 17.7815L11.2416 17.7831L11.3044 17.7993L11.3025 17.8074C11.2772 17.9116 11.2537 18.0155 11.2361 18.1197L11.2345 18.1266H11.2279ZM11.2207 18.1095C11.2384 18.0096 11.2596 17.9103 11.2842 17.8118L11.2454 17.802C11.1867 18.0221 11.073 18.0417 10.8416 18.0402C10.7182 18.0402 10.5944 18.0402 10.5939 17.9037V17.4371H10.8375C10.9744 17.4356 10.9884 17.5186 10.9981 17.6305L11.0405 17.6217C11.033 17.4755 11.033 17.329 11.0405 17.1828L10.9981 17.1827C10.9872 17.2851 10.9553 17.3571 10.8357 17.3558H10.5939V16.8234H10.8751C11.0791 16.822 11.1128 16.9276 11.1215 17.0513L11.1639 17.0398C11.1601 16.9758 11.1582 16.9116 11.1581 16.8474C11.1581 16.8138 11.1589 16.782 11.16 16.7542C11.0268 16.7547 10.8283 16.7618 10.6669 16.7618C10.5058 16.7618 10.3075 16.7547 10.1874 16.7542V16.7958H10.2064C10.2763 16.7958 10.3598 16.8082 10.36 16.9168V17.9471C10.3598 18.0554 10.2763 18.0674 10.2064 18.068H10.1874V18.1094C10.3018 18.1094 10.5282 18.102 10.7005 18.102C10.8734 18.102 11.0942 18.1094 11.2207 18.1094V18.1095ZM11.5591 16.9539C11.5591 16.8105 11.4808 16.8046 11.4198 16.8046H11.3846V16.7454C11.4474 16.7454 11.5687 16.7534 11.6884 16.7534C11.806 16.7534 11.9003 16.7454 12.004 16.7454C12.2508 16.7454 12.4707 16.8124 12.4707 17.0919C12.4707 17.2685 12.3531 17.3767 12.1983 17.4379L12.5335 17.9411C12.5883 18.0243 12.6274 18.0475 12.7236 18.059V18.1183C12.6588 18.1183 12.5961 18.1106 12.5315 18.1106C12.4707 18.1106 12.4078 18.1183 12.3472 18.1183C12.1963 17.9197 12.0667 17.7072 11.9392 17.4809H11.8103V17.9019C11.8103 18.0535 11.8805 18.059 11.9707 18.059H12.006V18.1183C11.894 18.1183 11.7807 18.1106 11.6688 18.1106C11.5746 18.1106 11.4824 18.1183 11.3846 18.1183V18.059H11.4198C11.4926 18.059 11.5591 18.026 11.5591 17.953V16.9538L11.5591 16.9539ZM11.8103 17.4102H11.9059C12.1021 17.4102 12.2078 17.3354 12.2078 17.1034C12.2078 16.9286 12.0961 16.8163 11.9214 16.8163C11.8626 16.8163 11.8375 16.8225 11.8102 16.8242V17.4102H11.8103Z" fill="#211E1F"/>
<path d="M12.7237 18.1266C12.658 18.1266 12.5956 18.1187 12.5311 18.1187C12.4713 18.1187 12.4087 18.1267 12.3404 18.1234C12.19 17.9255 12.0612 17.7143 11.9344 17.4896H11.8185V17.9017C11.8206 18.0497 11.8799 18.0484 11.9705 18.0506H12.0145V18.1267H12.0057C11.8937 18.1267 11.78 18.1187 11.6686 18.1187C11.5749 18.1187 11.483 18.1267 11.3846 18.1267H11.376V18.0506H11.4197C11.4905 18.0502 11.5501 18.0194 11.5503 17.9531V16.9539C11.5488 16.8143 11.4807 16.8151 11.4197 16.8131H11.376V16.7369H11.3845C11.4481 16.7369 11.569 16.7446 11.6885 16.7446C11.8055 16.7446 11.8997 16.7369 12.0041 16.7369C12.2512 16.7374 12.4788 16.8058 12.4794 17.0914C12.4794 17.269 12.3624 17.3799 12.211 17.4418L12.5405 17.9365C12.5953 18.0181 12.6294 18.0383 12.7249 18.0506L12.7321 18.0517V18.1267L12.7237 18.1266ZM11.8101 17.4725H11.9441L11.9464 17.4768C12.0741 17.7027 12.2029 17.9149 12.3473 18.1099C12.4071 18.1099 12.4701 18.1018 12.5311 18.1018C12.5937 18.1018 12.6541 18.1086 12.7152 18.1096V18.0666C12.6232 18.055 12.5801 18.0275 12.5265 17.9458L12.1853 17.4338L12.1949 17.4298C12.3484 17.3694 12.4619 17.2642 12.4621 17.0914C12.4619 16.8186 12.2506 16.7553 12.0041 16.7542C11.9007 16.7542 11.8065 16.7619 11.6885 16.7619C11.5733 16.7619 11.457 16.7547 11.3929 16.7542V16.7958H11.4197C11.4807 16.796 11.5674 16.8061 11.5674 16.9539V17.9531C11.5674 18.032 11.4936 18.068 11.4197 18.0682H11.3929V18.1096C11.4873 18.1094 11.5765 18.1018 11.6686 18.1018C11.7782 18.1018 11.8889 18.1094 11.9973 18.1096V18.0682H11.9705C11.8811 18.068 11.8014 18.0569 11.8014 17.9017V17.4725H11.81H11.8101ZM11.8101 17.4185H11.8014V16.8163L11.8089 16.8157C11.8357 16.8136 11.8622 16.808 11.9215 16.808C12.1001 16.808 12.2162 16.9245 12.2165 17.1038C12.216 17.3386 12.1037 17.4183 11.906 17.4184H11.81L11.8101 17.4185ZM11.906 17.4015C12.1001 17.3999 12.1977 17.3323 12.1998 17.1038C12.1987 16.9319 12.0922 16.8254 11.9214 16.8246C11.8685 16.8246 11.8436 16.8295 11.8185 16.8318V17.4015H11.906ZM14.0548 17.7307L14.0584 17.7269V16.9895C14.0584 16.8281 13.9468 16.8046 13.888 16.8046H13.845V16.7455C13.937 16.7455 14.0271 16.7534 14.1194 16.7534C14.1999 16.7534 14.28 16.7455 14.3609 16.7455V16.8046H14.3313C14.2489 16.8046 14.1568 16.8202 14.1568 17.0542V17.9493C14.1568 18.018 14.1587 18.0867 14.1684 18.1477H14.094L13.0844 17.0189V17.8291C13.0844 18.0003 13.1177 18.059 13.2685 18.059H13.3019V18.1183C13.2177 18.1183 13.1333 18.1106 13.0491 18.1106C12.9606 18.1106 12.8705 18.1183 12.7824 18.1183V18.059H12.8096C12.945 18.059 12.9862 17.9669 12.9862 17.8097V16.9814C12.9862 16.8713 12.8961 16.8046 12.808 16.8046H12.7824V16.7456C12.8566 16.7456 12.9334 16.7534 13.0078 16.7534C13.0662 16.7534 13.1233 16.7456 13.1822 16.7456L14.0548 17.7307Z" fill="#211E1F"/>
<path d="M14.1684 18.1562L14.0876 18.1535L13.0926 17.0411V17.8291C13.0949 18.0002 13.1207 18.0487 13.2686 18.0507H13.3102V18.1267H13.3015C13.2167 18.1267 13.1327 18.1187 13.0486 18.1187C12.961 18.1187 12.8705 18.1267 12.7822 18.1267H12.7734V18.0507H12.8094C12.9389 18.0501 12.976 17.9665 12.9773 17.8091V16.9814C12.9771 16.8766 12.8916 16.8131 12.8078 16.813H12.7734V16.737H12.7822C12.857 16.737 12.9338 16.7447 13.0077 16.7447C13.0653 16.7447 13.1222 16.7369 13.188 16.7396L14.0498 17.7129V16.9894C14.0493 16.8331 13.9449 16.8138 13.8879 16.813H13.8361V16.737H13.8447C13.9374 16.737 14.0277 16.7447 14.1193 16.7447C14.1993 16.7447 14.2796 16.7369 14.3604 16.7369H14.3689V16.813H14.3313C14.2504 16.8151 14.167 16.8224 14.165 17.0543V17.9491C14.165 18.0179 14.1667 18.0861 14.1766 18.1466L14.1778 18.1562H14.1684ZM14.0939 18.139H14.1583C14.1498 18.0799 14.1478 18.0145 14.1478 17.9491V17.0543C14.148 16.8183 14.2472 16.7965 14.3313 16.7958H14.3518V16.7542C14.2748 16.7547 14.1972 16.7619 14.1193 16.7619C14.0293 16.7619 13.9418 16.7547 13.853 16.7542V16.7958H13.8879C13.9482 16.7965 14.0671 16.823 14.0671 16.9894L14.0644 17.7328L14.0606 17.7368L14.0546 17.7432L13.182 16.7543C13.1238 16.7543 13.067 16.7619 13.0077 16.7619C12.9351 16.7619 12.8618 16.7547 12.7905 16.7543V16.7959H12.8078C12.8998 16.7965 12.9944 16.8662 12.9944 16.9814V17.8091C12.9944 17.9671 12.9501 18.0675 12.8095 18.0681L12.7905 18.0679V18.1095C12.8751 18.1091 12.9626 18.102 13.0486 18.102C13.1309 18.102 13.2123 18.1091 13.2934 18.1095V18.0681H13.2686C13.1142 18.0679 13.0756 18.0002 13.0753 17.8291V16.9971L14.0939 18.139ZM14.0498 17.7269V17.7263L14.0482 17.7247L14.0498 17.7269ZM14.6761 17.8371C14.6562 17.9038 14.6326 17.9553 14.6326 17.9903C14.6326 18.0495 14.7151 18.0591 14.7796 18.0591H14.8014V18.1183C14.7223 18.1136 14.6431 18.111 14.5638 18.1106C14.4933 18.1106 14.423 18.1142 14.3524 18.1184V18.0591H14.3642C14.4406 18.0591 14.5055 18.0139 14.5344 17.9312L14.8485 17.0288C14.8738 16.956 14.9094 16.8576 14.9213 16.7848C14.9837 16.7634 15.0622 16.724 15.0994 16.7003C15.1054 16.6983 15.1089 16.6963 15.115 16.6963C15.1209 16.6963 15.1246 16.6963 15.129 16.7024C15.1347 16.7179 15.1404 16.7358 15.1467 16.7515L15.5074 17.7801C15.5309 17.8488 15.5542 17.9215 15.5796 17.9807C15.6032 18.0358 15.6446 18.0591 15.7094 18.0591H15.721V18.1184C15.6309 18.1136 15.5407 18.111 15.4506 18.1107C15.3544 18.1107 15.2562 18.1142 15.1562 18.1184V18.0591H15.1779C15.2228 18.0591 15.2995 18.0515 15.2995 18.0023C15.2995 17.9767 15.2818 17.9237 15.2599 17.8606L15.1837 17.6324H14.7386L14.6761 17.8371V17.8371ZM14.9622 16.9659H14.9582L14.7758 17.5224H15.1422L14.9622 16.9659Z" fill="#211E1F"/>
<path d="M15.7203 18.1267C15.6321 18.1227 15.5438 18.1187 15.4505 18.1187C15.3543 18.1187 15.2567 18.1227 15.1563 18.1267L15.1475 18.1272V18.0503H15.1777C15.2231 18.0503 15.2905 18.0399 15.2905 18.0022C15.2911 17.9798 15.2734 17.9259 15.2518 17.8632L15.1772 17.6408H14.7447L14.6838 17.8395C14.6639 17.9066 14.6404 17.9586 14.6405 17.9906C14.6412 18.0386 14.7145 18.0503 14.7795 18.0503H14.8097V18.1271L14.8009 18.1267C14.7224 18.1227 14.6423 18.1187 14.5641 18.1187C14.4938 18.1187 14.4232 18.1227 14.3529 18.1267L14.3438 18.1272V18.0503H14.364C14.437 18.05 14.4979 18.0085 14.5262 17.9284L14.8402 17.0259C14.8658 16.953 14.9012 16.855 14.9181 16.7766C14.9801 16.7544 15.0398 16.7261 15.0961 16.6922C15.1016 16.6903 15.107 16.6876 15.115 16.6876C15.1193 16.6874 15.1236 16.6884 15.1274 16.6904C15.1312 16.6925 15.1344 16.6955 15.1366 16.6991C15.1422 16.7153 15.1484 16.7327 15.1543 16.7487L15.5154 17.7772C15.5386 17.8462 15.562 17.9189 15.5875 17.977C15.6102 18.0295 15.6463 18.0501 15.7093 18.0503H15.7293V18.1272L15.7203 18.1267ZM15.1646 18.1091C15.2618 18.1057 15.3568 18.1019 15.4505 18.1019C15.5415 18.1019 15.6268 18.1057 15.7121 18.1091V18.068H15.7093C15.6422 18.0684 15.5957 18.042 15.5717 17.984C15.5461 17.9243 15.5222 17.8514 15.4993 17.7825L15.1382 16.7542C15.1323 16.7385 15.1265 16.7206 15.1214 16.7067C15.1198 16.7048 15.1201 16.7048 15.1185 16.7048H15.115C15.1109 16.7048 15.1086 16.706 15.1036 16.7074C15.0658 16.7321 14.9871 16.7707 14.929 16.7861C14.9169 16.8605 14.8817 16.9586 14.8561 17.0315L14.5424 17.9341C14.5125 18.0195 14.4437 18.0682 14.364 18.068H14.3609V18.1091C14.4281 18.1057 14.4961 18.1019 14.5641 18.1019C14.6398 18.1019 14.7173 18.1057 14.7921 18.1091V18.068H14.7795C14.7157 18.0672 14.6265 18.06 14.6241 17.9906C14.6242 17.9514 14.6483 17.901 14.6674 17.8346L14.676 17.8372L14.6674 17.8343L14.732 17.6241H15.1891L15.2678 17.8578C15.2898 17.921 15.3077 17.9733 15.3077 18.0022C15.3049 18.0626 15.2221 18.0668 15.1777 18.068H15.1646V18.1091ZM14.7638 17.5308L14.9516 16.9572H14.9622H14.9681L15.1541 17.5308H14.7638ZM14.7873 17.5138H15.1305L14.9599 16.9867L14.7873 17.5138ZM15.8071 16.8438C15.6599 16.8438 15.6542 16.8792 15.6246 17.0227H15.5657C15.5734 16.9677 15.5833 16.9127 15.5895 16.8555C15.5974 16.8004 15.6009 16.7455 15.6009 16.6886H15.6482C15.6639 16.7476 15.7131 16.7455 15.7657 16.7455H16.7778C16.8303 16.7455 16.8793 16.7437 16.8833 16.6845L16.9302 16.6924C16.9228 16.7455 16.915 16.7987 16.909 16.8518C16.9048 16.9048 16.9048 16.958 16.9048 17.011L16.8461 17.0328C16.8424 16.9602 16.8326 16.8438 16.7012 16.8438H16.3796V17.8901C16.3796 18.0417 16.4484 18.0591 16.5422 18.0591H16.5794V18.1183C16.503 18.1183 16.366 18.1106 16.26 18.1106C16.1425 18.1106 16.005 18.1183 15.9286 18.1183V18.0591H15.9657C16.0737 18.0591 16.1288 18.0494 16.1288 17.8942V16.8438H15.8071Z" fill="#211E1F"/>
<path d="M16.5796 18.1267C16.5026 18.1267 16.3653 18.1187 16.2601 18.1187C16.1429 18.1187 16.0056 18.1267 15.9287 18.1267H15.9201V18.0506H15.9658C16.0739 18.0479 16.1173 18.0466 16.1201 17.8942L16.1197 16.8523H15.8072V16.835H16.137V17.8942C16.137 18.0519 16.0735 18.0674 15.9658 18.0678H15.937V18.1099C16.0146 18.1091 16.1463 18.1019 16.2601 18.1019C16.3625 18.1019 16.4935 18.1091 16.571 18.1099V18.0679H16.5421C16.4478 18.0675 16.3714 18.0447 16.3712 17.8901V16.835H16.7013C16.8329 16.8355 16.8501 16.9478 16.8538 17.0206L16.8966 17.005C16.8966 16.9538 16.8968 16.9023 16.9006 16.8508C16.906 16.8002 16.9133 16.7498 16.9206 16.6996L16.8909 16.6945C16.882 16.7518 16.8266 16.755 16.7778 16.7541H15.7559C15.7097 16.7547 15.6597 16.7519 15.6418 16.6967H15.6098C15.6095 16.7502 15.6055 16.8036 15.5978 16.8565C15.5926 16.9107 15.5829 16.9627 15.5757 17.0144H15.6177C15.6437 16.8774 15.6606 16.8329 15.8072 16.835V16.8523C15.6618 16.8547 15.6651 16.8794 15.633 17.0248L15.6315 17.0315H15.5559L15.5571 17.0216C15.5653 16.9662 15.5751 16.9113 15.5808 16.8544C15.5888 16.7995 15.5926 16.745 15.5926 16.6885V16.6799H15.6546L15.6562 16.6861C15.67 16.7357 15.7057 16.7359 15.7559 16.7368L15.7658 16.737H16.7778C16.8319 16.736 16.8714 16.7351 16.8749 16.6839L16.8754 16.6745L16.8846 16.6764L16.9402 16.6852L16.9388 16.6937C16.9306 16.7464 16.9234 16.7993 16.9173 16.8523C16.9133 16.9047 16.9133 16.9579 16.9133 17.0109V17.017L16.9078 17.0192L16.8382 17.0446L16.8379 17.0331C16.8329 16.9592 16.8251 16.8522 16.7013 16.8522H16.3881V17.8901C16.3902 18.0384 16.4488 18.0487 16.5421 18.0506H16.588V18.1266H16.5796V18.1267ZM17.0028 18.059H17.0302C17.101 18.059 17.1751 18.0495 17.1751 17.947V16.9168C17.1751 16.8143 17.101 16.8046 17.0303 16.8046H17.0028V16.7455C17.0793 16.7455 17.1968 16.7533 17.2926 16.7533C17.391 16.7533 17.5086 16.7455 17.6009 16.7455V16.8046H17.5733C17.5028 16.8046 17.4281 16.8143 17.4281 16.9168V17.947C17.4281 18.0494 17.5028 18.0591 17.5733 18.0591H17.6009V18.1182C17.5066 18.1182 17.3889 18.1106 17.2911 18.1106C17.1949 18.1106 17.0793 18.1183 17.0028 18.1183V18.059Z" fill="#211E1F"/>
<path d="M17.6008 18.1266C17.5061 18.1266 17.3887 18.1186 17.2909 18.1186C17.1951 18.1186 17.0793 18.1266 17.0027 18.1266H16.9941V18.0506H17.0301C17.101 18.0494 17.166 18.0434 17.1663 17.947V16.9168C17.166 16.8208 17.101 16.8142 17.0301 16.8129H16.9941V16.7371H17.0027C17.0793 16.7371 17.197 16.7446 17.2925 16.7446C17.3903 16.7446 17.5079 16.7371 17.6008 16.7371H17.6091V16.8129H17.5733C17.5017 16.8142 17.4373 16.8208 17.4364 16.9168V17.947C17.4373 18.0434 17.5017 18.0494 17.5733 18.0506H17.6091V18.1266H17.6008V18.1266ZM17.592 18.1094V18.0678H17.5733C17.503 18.0678 17.4198 18.0554 17.4198 17.947V16.9168C17.4198 16.8081 17.503 16.7958 17.5733 16.7958H17.592V16.7542C17.5014 16.7546 17.3881 16.7618 17.2925 16.7618C17.1997 16.7618 17.0873 16.7546 17.0113 16.7542V16.7958H17.0302C17.0999 16.7958 17.1834 16.8081 17.1837 16.9168V17.947C17.1834 18.0554 17.0999 18.0678 17.0302 18.0678H17.0113V18.1094C17.0869 18.1086 17.1978 18.1019 17.2909 18.1019C17.386 18.1019 17.4995 18.109 17.5919 18.1094H17.592ZM18.3826 16.7161C18.8005 16.7161 19.1337 16.976 19.1337 17.3947C19.1337 17.8471 18.8102 18.1478 18.3929 18.1478C17.9768 18.1478 17.6594 17.8646 17.6594 17.4418C17.6594 17.0328 17.9749 16.7161 18.3826 16.7161ZM18.4122 18.0612C18.7927 18.0612 18.8589 17.7246 18.8589 17.4379C18.8589 17.1505 18.7045 16.8026 18.3789 16.8026C18.0357 16.8026 17.9338 17.1093 17.9338 17.3726C17.9338 17.7246 18.0945 18.0612 18.4122 18.0612Z" fill="#211E1F"/>
<path d="M17.6509 17.4418C17.6517 17.0281 17.9709 16.7081 18.3827 16.7075V16.7244C17.9798 16.7244 17.6678 17.0371 17.6675 17.4418C17.6684 17.8599 17.9813 18.1388 18.393 18.1389C18.8062 18.1388 19.1251 17.8423 19.1258 17.3943C19.1254 16.9809 18.7972 16.725 18.3827 16.7244V16.7075C18.8039 16.7078 19.1415 16.9703 19.1424 17.3943C19.142 17.8515 18.8143 18.1553 18.393 18.1561C17.9737 18.1553 17.6517 17.8692 17.6509 17.4417V17.4418ZM17.9255 17.3727C17.9261 17.1082 18.0291 16.7937 18.3791 16.7937C18.7119 16.7945 18.8674 17.1491 18.8679 17.4379C18.8673 17.7247 18.8 18.0694 18.4126 18.0694V18.0527C18.7854 18.0522 18.8499 17.7247 18.8509 17.4379C18.8509 17.1529 18.6978 16.8115 18.3791 16.8111C18.0427 16.8115 17.9431 17.1107 17.9426 17.3727C17.9428 17.7229 18.102 18.0519 18.4126 18.0527V18.0694C18.087 18.069 17.9261 17.7267 17.9255 17.3726V17.3727ZM20.4551 17.7307L20.4591 17.7269V16.9895C20.4591 16.8281 20.3471 16.8047 20.2882 16.8047H20.2458V16.7455C20.3377 16.7455 20.4278 16.7533 20.5197 16.7533C20.6003 16.7533 20.6806 16.7455 20.7612 16.7455V16.8047H20.7316C20.6494 16.8047 20.5571 16.8203 20.5571 17.0543V17.9493C20.5571 18.018 20.559 18.0867 20.569 18.1477H20.4946L19.4846 17.0189V17.8291C19.4846 18.0003 19.5178 18.0591 19.6687 18.0591H19.7023V18.1183C19.6178 18.1183 19.5338 18.1106 19.4494 18.1106C19.3612 18.1106 19.2708 18.1183 19.1826 18.1183V18.0591H19.2102C19.3457 18.0591 19.3863 17.9669 19.3863 17.8097V16.9814C19.3863 16.8713 19.2966 16.8046 19.2081 16.8046H19.1825V16.7456C19.257 16.7456 19.3336 16.7534 19.4079 16.7534C19.4668 16.7534 19.5235 16.7456 19.5826 16.7456L20.4551 17.7307Z" fill="#211E1F"/>
<path d="M20.5689 18.1562L20.4878 18.1533L19.493 17.0411V17.8292C19.4951 18.0002 19.521 18.0486 19.6683 18.0503H19.7107V18.1267H19.7022C19.6172 18.1267 19.533 18.1187 19.4493 18.1187C19.3613 18.1187 19.2713 18.1267 19.1822 18.1267H19.1741V18.0503H19.21C19.3393 18.0499 19.3764 17.9665 19.378 17.8097V16.9814C19.3778 16.8767 19.2922 16.8131 19.2079 16.813H19.1741V16.7371H19.1822C19.2574 16.7371 19.3338 16.7447 19.4078 16.7447C19.466 16.7447 19.5226 16.7371 19.5889 16.74L20.4503 17.7129V16.9897C20.4498 16.8332 20.3454 16.8143 20.2879 16.813H20.2365V16.7372H20.2453C20.3376 16.7372 20.428 16.7447 20.5193 16.7447C20.5998 16.7447 20.6797 16.7372 20.761 16.7372H20.7694V16.813H20.7314C20.6507 16.8154 20.5673 16.8227 20.5656 17.0543V17.9492C20.5656 18.0179 20.5671 18.0865 20.5766 18.1467L20.5782 18.1562H20.5689ZM20.4945 18.139H20.5586C20.55 18.0799 20.5486 18.0145 20.5486 17.9491V17.0543C20.5486 16.8179 20.6474 16.7965 20.7314 16.7958H20.7526V16.7542C20.6753 16.7547 20.5978 16.7619 20.5194 16.7619C20.4302 16.7619 20.3424 16.7547 20.2537 16.7542V16.7958H20.2881C20.3489 16.7965 20.4671 16.8234 20.4671 16.9897L20.465 17.7328L20.4613 17.7368L20.455 17.7432L19.5824 16.7543C19.5246 16.7543 19.4674 16.7619 19.4078 16.7619C19.3357 16.7619 19.2621 16.7547 19.1907 16.7543V16.7959H19.208C19.3 16.7965 19.3948 16.8662 19.3948 16.9814V17.8097C19.3948 17.9669 19.351 18.0675 19.21 18.0681L19.1907 18.0679V18.1095C19.2758 18.1091 19.3631 18.102 19.4493 18.102C19.531 18.102 19.6122 18.1091 19.6937 18.1095V18.0681H19.6683C19.5145 18.0679 19.476 18.0002 19.476 17.8292V16.9967L20.4944 18.139H20.4945ZM20.4504 17.7269V17.7263L20.4488 17.7247L20.4504 17.7269ZM21.0761 17.8371C21.0569 17.9038 21.0331 17.9553 21.0331 17.9903C21.0331 18.0495 21.1157 18.0591 21.18 18.0591H21.2018V18.1183C21.1228 18.1136 21.0436 18.111 20.9645 18.1106C20.8936 18.1106 20.8234 18.1142 20.753 18.1184V18.0591H20.7642C20.841 18.0591 20.906 18.0139 20.935 17.9312L21.249 17.0288C21.2743 16.956 21.3098 16.8576 21.3213 16.7848C21.3835 16.7626 21.4433 16.7343 21.5 16.7003C21.5056 16.6983 21.5096 16.6963 21.5155 16.6963C21.5214 16.6963 21.525 16.6963 21.529 16.7024C21.535 16.7179 21.5411 16.7358 21.547 16.7515L21.9075 17.7801C21.931 17.8488 21.9544 17.9215 21.9802 17.9807C22.0038 18.0358 22.045 18.0591 22.1095 18.0591H22.1215V18.1184C22.0313 18.1136 21.941 18.111 21.8506 18.1107C21.7526 18.1112 21.6545 18.1138 21.5566 18.1184V18.0591H21.5783C21.6231 18.0591 21.7 18.0515 21.7 18.0023C21.7 17.9767 21.6822 17.9237 21.6603 17.8606L21.5842 17.6324H21.139L21.0761 17.8371V17.8371ZM21.3627 16.9659H21.3587L21.1762 17.5224H21.5431L21.3627 16.9659Z" fill="#211E1F"/>
<path d="M22.1205 18.1267C22.0323 18.1231 21.9442 18.1187 21.8505 18.1187C21.755 18.1187 21.6569 18.1231 21.5568 18.1267L21.5481 18.1272V18.0506H21.5778C21.6234 18.0506 21.6911 18.0399 21.6912 18.0022C21.6916 17.9798 21.674 17.9262 21.6521 17.8632L21.5776 17.6408H21.1448L21.0841 17.8395C21.0646 17.9069 21.0412 17.9586 21.0416 17.9903C21.0416 18.0386 21.115 18.0506 21.1799 18.0506H21.2098V18.1272L21.201 18.1267C21.1226 18.1231 21.0424 18.1187 20.9644 18.1187C20.8941 18.1187 20.8236 18.1231 20.7529 18.1267L20.7444 18.1272V18.0506H20.7641C20.8373 18.0503 20.8985 18.0082 20.927 17.9284L21.2408 17.0259C21.2658 16.953 21.3011 16.855 21.3185 16.7768C21.3801 16.7554 21.4589 16.7162 21.4969 16.6921C21.5021 16.6903 21.5073 16.6881 21.5153 16.6881C21.5197 16.6876 21.524 16.6885 21.5279 16.6905C21.5317 16.6925 21.5349 16.6956 21.5369 16.6994C21.5427 16.7149 21.5485 16.7327 21.5549 16.7487L21.9155 17.7772C21.9389 17.8462 21.9625 17.9188 21.9878 17.9774C22.0109 18.0295 22.0466 18.05 22.1091 18.0506H22.1295V18.1272L22.1205 18.1267ZM21.5649 18.1094C21.6618 18.1057 21.7573 18.1019 21.8505 18.1019C21.9417 18.1019 22.0273 18.1057 22.1127 18.1091L22.1124 18.068H22.1092C22.0428 18.0682 21.9965 18.042 21.9721 17.984C21.9463 17.9243 21.9229 17.8514 21.8995 17.7827L21.5387 16.7542C21.5328 16.7385 21.5269 16.7206 21.5221 16.7073C21.5205 16.7048 21.5206 16.7048 21.5191 16.7048H21.5154C21.5113 16.7048 21.5091 16.7062 21.5044 16.7075C21.4662 16.7317 21.3876 16.7709 21.3296 16.7861C21.3174 16.8605 21.2818 16.9586 21.2565 17.0315L20.9426 17.9342C20.9129 18.0194 20.8443 18.0682 20.7641 18.068H20.7613V18.1091C20.8287 18.1057 20.8961 18.1019 20.9644 18.1019C21.0404 18.1019 21.1177 18.1057 21.1932 18.1091V18.068H21.1798C21.1161 18.0672 21.0266 18.0602 21.0243 17.9903C21.0247 17.9513 21.0491 17.9013 21.068 17.8346L21.076 17.8372L21.068 17.8343L21.1325 17.6241H21.5898L21.6684 17.8577C21.69 17.9211 21.7078 17.9733 21.7078 18.0022C21.7049 18.0626 21.6227 18.0668 21.5778 18.068H21.5649L21.5649 18.1094ZM21.1644 17.5306L21.3524 16.9572H21.3626H21.3687L21.5541 17.5306H21.1644ZM21.1879 17.5138H21.5308L21.3603 16.987L21.1879 17.5138ZM21.3545 16.9682L21.3584 16.9667L21.3544 16.9682H21.3545ZM22.6154 17.9255C22.6154 18.0042 22.6698 18.0277 22.7326 18.0357C22.813 18.0417 22.9013 18.0417 22.9918 18.0317C23.0739 18.0218 23.1446 17.9746 23.1797 17.9255C23.2109 17.8822 23.2286 17.8271 23.2405 17.7839H23.2973C23.2758 17.8959 23.2483 18.0063 23.2247 18.1183C23.0525 18.1183 22.8797 18.1106 22.7073 18.1106C22.5345 18.1106 22.3623 18.1183 22.1897 18.1183V18.0591H22.2167C22.2877 18.0591 22.3644 18.0494 22.3644 17.9274V16.9168C22.3644 16.8143 22.2876 16.8046 22.2167 16.8046H22.1897V16.7456C22.2933 16.7456 22.3955 16.7534 22.4992 16.7534C22.5995 16.7534 22.6974 16.7456 22.7975 16.7456V16.8046H22.7481C22.6739 16.8046 22.6154 16.8068 22.6154 16.9107V17.9255Z" fill="#211E1F"/>
<path d="M23.2248 18.1267C23.052 18.1267 22.8795 18.1188 22.7075 18.1188C22.5348 18.1188 22.3623 18.1267 22.1895 18.1267H22.1812V18.0506H22.2168C22.288 18.049 22.3551 18.0441 22.3559 17.9274V16.9165C22.3551 16.8209 22.2883 16.8143 22.2168 16.813H22.1812V16.7371H22.1895C22.2937 16.7371 22.3959 16.7446 22.4994 16.7446C22.599 16.7446 22.6968 16.7371 22.7976 16.7371H22.8056V16.813H22.7484C22.6724 16.8151 22.6251 16.8116 22.6236 16.9107V17.9256C22.6241 17.9988 22.672 18.0186 22.7332 18.0272C22.7678 18.0296 22.8041 18.0311 22.842 18.0311C22.89 18.0311 22.9398 18.0288 22.9904 18.0234C23.0704 18.0139 23.1392 17.9677 23.1728 17.9208C23.2031 17.8788 23.2204 17.8248 23.2321 17.7819L23.234 17.7754H23.3077L23.306 17.7858C23.2838 17.8982 23.2569 18.0082 23.2332 18.12L23.2316 18.1267L23.2248 18.1267ZM23.2177 18.1095C23.2404 18.0029 23.2661 17.8986 23.2872 17.7922H23.2469C23.2347 17.835 23.2173 17.8878 23.1864 17.9307C23.1499 17.9818 23.0772 18.0298 22.9923 18.0403C22.9409 18.0455 22.89 18.0482 22.8419 18.0482C22.804 18.0482 22.7672 18.0465 22.7316 18.044C22.6679 18.037 22.606 18.0096 22.6063 17.9256V16.9106C22.6063 16.8014 22.6752 16.7958 22.7484 16.7958H22.7889V16.7541C22.6923 16.7547 22.5971 16.7619 22.4994 16.7619C22.3979 16.7619 22.2986 16.7547 22.198 16.7541V16.7958H22.2168C22.2868 16.7958 22.3724 16.8081 22.3724 16.9163V17.9274C22.3724 18.0546 22.2872 18.0679 22.2168 18.0679H22.198V18.1094C22.3676 18.1093 22.5371 18.1019 22.7075 18.1019C22.8779 18.1019 23.048 18.1093 23.2177 18.1094V18.1095ZM23.2736 16.6897C23.3917 16.6897 23.48 16.7808 23.48 16.8974C23.48 17.0137 23.3917 17.1038 23.2736 17.1038C23.1554 17.1038 23.0671 17.0137 23.0671 16.8974C23.0671 16.7808 23.1554 16.6897 23.2736 16.6897ZM23.2736 17.0654C23.3659 17.0654 23.4369 16.9862 23.4369 16.8974C23.4369 16.8082 23.367 16.7284 23.2736 16.7284C23.1808 16.7284 23.1097 16.8082 23.1097 16.8974C23.1097 16.9862 23.1808 17.0654 23.2736 17.0654ZM23.1708 17.0066V16.9963C23.1962 16.9928 23.2008 16.9936 23.2008 16.9778V16.8246C23.2008 16.803 23.1984 16.7956 23.1717 16.7967V16.7862H23.2773C23.3138 16.7862 23.3472 16.8035 23.3472 16.8412C23.3472 16.872 23.3268 16.8948 23.2984 16.9036L23.3322 16.951C23.348 16.9726 23.3659 16.9928 23.3777 16.9998V17.0066H23.3375C23.3182 17.0066 23.3013 16.9658 23.2632 16.9111H23.2404V16.9799C23.2404 16.9935 23.2452 16.9927 23.2706 16.9963V17.0066H23.1708ZM23.2404 16.8974H23.2648C23.2914 16.8974 23.3039 16.8772 23.3039 16.8446C23.3039 16.8116 23.2846 16.8 23.2634 16.8H23.2404V16.8974Z" fill="#211E1F"/>
<path d="M16.021 13.1962C19.0005 13.2105 21.72 10.7532 21.72 7.76385C21.72 4.49481 19.0005 2.23513 16.021 2.23625H13.4568C10.4417 2.23513 7.95996 4.49545 7.95996 7.76385C7.95996 10.7538 10.4417 13.2106 13.4568 13.1962H16.021Z" fill="#0079BE"/>
<path d="M13.4691 2.68921C10.7139 2.69009 8.48135 4.93537 8.48071 7.70649C8.48135 10.477 10.7139 12.7221 13.4691 12.723C16.225 12.7222 18.458 10.477 18.4583 7.70649C18.4579 4.93529 16.225 2.69009 13.4691 2.68921ZM10.3071 7.70649C10.3097 6.35233 11.1509 5.19769 12.337 4.73881V10.6734C11.1509 10.2148 10.3097 9.06073 10.3071 7.70649ZM14.6007 10.6747V4.73865C15.7874 5.19641 16.6298 6.35177 16.632 7.70657C16.6321 8.34841 16.4381 8.97528 16.0757 9.50497C15.7132 10.0347 15.1991 10.4424 14.6008 10.6748L14.6007 10.6747Z" fill="white"/>
<path d="M16.021 13.1962C19.0005 13.2105 21.72 10.7532 21.72 7.76385C21.72 4.49481 19.0005 2.23513 16.021 2.23625H13.4568C10.4417 2.23513 7.95996 4.49545 7.95996 7.76385C7.95996 10.7538 10.4417 13.2106 13.4568 13.1962H16.021Z" fill="#0079BE"/>
<path d="M13.4691 2.68921C10.7139 2.69009 8.48135 4.93537 8.48071 7.70649C8.48135 10.477 10.7139 12.7221 13.4691 12.723C16.225 12.7222 18.458 10.477 18.4583 7.70649C18.4579 4.93529 16.225 2.69009 13.4691 2.68921ZM10.3071 7.70649C10.3097 6.35233 11.1509 5.19769 12.337 4.73881V10.6734C11.1509 10.2148 10.3097 9.06073 10.3071 7.70649ZM14.6007 10.6747V4.73865C15.7874 5.19641 16.6298 6.35177 16.632 7.70657C16.6321 8.34841 16.4381 8.97528 16.0757 9.50497C15.7132 10.0347 15.1991 10.4424 14.6008 10.6748L14.6007 10.6747Z" fill="white"/>
<path fill-rule="evenodd" clip-rule="evenodd" d="M3.4 0.15625H26.6C27.928 0.15625 29 1.22825 29 2.55625V17.7563C29 19.0843 27.928 20.1562 26.6 20.1562H3.4C2.072 20.1562 1 19.0843 1 17.7563V2.55625C1 1.22825 2.072 0.15625 3.4 0.15625ZM28.2 2.55625C28.2 1.67625 27.48 0.95625 26.6 0.95625H3.4C2.52 0.95625 1.8 1.67625 1.8 2.55625V17.7563C1.8 18.6363 2.52 19.3562 3.4 19.3562H26.6C27.48 19.3562 28.2 18.6363 28.2 17.7563V2.55625Z" fill="#E7E7E7"/>
</g>
<defs>
<clipPath id="clip0_0_648">
<rect width="28" height="20" fill="white" transform="translate(1 0.15625)"/>
</clipPath>
</defs>
</svg>
